<svg id="Capa_1" enable-background="new 0 0 512 512" height="512" viewBox="0 0 512 512" width="512" xmlns="http://www.w3.org/2000/svg"><g><g><g><path d="m256 132.163c-4.204 0-7.611-3.407-7.611-7.611v-96.45c0-4.204 3.407-7.611 7.611-7.611s7.612 3.407 7.612 7.611v96.45c-.001 4.203-3.408 7.611-7.612 7.611z" fill="#e278b1"/></g><g><path d="m272.117 20.473-12.881-18.77c-1.559-2.272-4.912-2.272-6.471 0l-12.881 18.77c-.918 1.338-.918 3.103 0 4.441l16.116 23.484 16.117-23.484c.918-1.338.918-3.103 0-4.441z" fill="#e278b1"/></g><g><g><path d="m142.973 10.194-18.77 12.881c-2.272 1.559-2.272 4.912 0 6.471l18.77 12.881c1.338.918 3.103.918 4.441 0l23.484-16.117-23.484-16.117c-1.338-.917-3.103-.917-4.441.001z" fill="#e278b1"/></g><g><path d="m200.366 150.369c-4.204 0-7.611-3.407-7.611-7.611v-108.836h-42.154c-4.204 0-7.611-3.407-7.611-7.611s3.407-7.611 7.611-7.611h49.765c4.204 0 7.611 3.407 7.611 7.611v116.447c.001 4.204-3.406 7.611-7.611 7.611z" fill="#e278b1"/></g><g><path d="m369.027 10.194 18.77 12.881c2.272 1.559 2.272 4.912 0 6.471l-18.77 12.881c-1.338.918-3.103.918-4.441 0l-23.484-16.117 23.484-16.117c1.338-.917 3.103-.917 4.441.001z" fill="#e278b1"/></g><g><path d="m311.634 166.321c-4.204 0-7.612-3.407-7.612-7.611v-132.4c0-4.204 3.407-7.611 7.612-7.611h49.765c4.204 0 7.611 3.407 7.611 7.611s-3.407 7.611-7.611 7.611h-42.154v124.789c0 4.204-3.407 7.611-7.611 7.611z" fill="#e278b1"/></g></g></g><path d="m294.231 441.696-13.886-15.625h-53.661l-8.915 15.625c4.946 24.6-9.076 50.548-26.504 62.693h129.469c-17.427-12.146-31.449-38.093-26.503-62.693z" fill="#365e7d"/><path d="m218.184 460.016h75.633c-.869-6.035-.812-12.219.414-18.32l-13.886-15.625h-53.661l-8.915 15.625c1.227 6.101 1.284 12.284.415 18.32z" fill="#2b4d66"/><g><path d="m351.925 512h-191.85c-4.204 0-7.611-3.407-7.611-7.612s3.407-7.611 7.611-7.611h191.85c4.204 0 7.611 3.407 7.611 7.611s-3.407 7.612-7.611 7.612z" fill="#2b4d66"/></g><g><path d="m256 487.172c-4.204 0-7.611-3.407-7.611-7.611v-6.651c0-4.204 3.407-7.611 7.611-7.611s7.612 3.407 7.612 7.611v6.651c-.001 4.203-3.408 7.611-7.612 7.611z" fill="#2b4d66"/></g><path d="m450.141 380.153-19.558-15.625h-354.288l-14.436 15.625v34.384c0 14.999 12.159 27.158 27.158 27.158h333.965c14.999 0 27.158-12.159 27.158-27.158v-34.384z" fill="#d0e2e7"/><path d="m430.583 364.528v50.009c0 14.999-12.159 27.158-27.158 27.158h19.558c14.999 0 27.158-12.159 27.158-27.158v-34.384z" fill="#b4d0d5"/><g><path d="m269.784 418.536h-27.567c-4.204 0-7.611-3.407-7.611-7.611s3.407-7.612 7.611-7.612h27.567c4.204 0 7.611 3.407 7.611 7.612s-3.407 7.611-7.611 7.611z" fill="#95d6a4"/></g><path d="m450.141 380.153h-388.282v-209.975c0-14.999 12.159-27.158 27.158-27.158h333.965c14.999 0 27.158 12.159 27.158 27.158v209.975z" fill="#365e7d"/><path d="m422.982 143.02h-19.558c14.999 0 27.158 12.159 27.158 27.158v209.975h19.558v-209.975c.001-14.999-12.158-27.158-27.158-27.158z" fill="#2b4d66"/><path d="m92.306 345.739v-168.305c0-2.191 1.777-3.968 3.968-3.968h319.453c2.191 0 3.968 1.777 3.968 3.968v168.305c0 2.191-1.777 3.968-3.968 3.968h-319.453c-2.192 0-3.968-1.777-3.968-3.968z" fill="#f6f9f9"/><path d="m415.726 173.466h-21.523c2.191 0 3.968 1.777 3.968 3.968v168.305c0 2.192-1.777 3.968-3.968 3.968h21.523c2.192 0 3.968-1.776 3.968-3.968v-168.305c0-2.191-1.776-3.968-3.968-3.968z" fill="#dfeaef"/><g><path d="m249.163 84.971c28.748 0 53.718 16.475 65.966 40.479 1.783 3.494 5.443 5.618 9.359 5.387 37.366-2.202 69.46 27.597 69.644 65.435.177 36.403-30.357 66.185-66.76 66.185h-151.016c-31.914 0-58.363-25.576-58.487-57.489-.114-29.316 21.948-54.327 51.347-57.583 4.047-.448 7.352-3.388 8.393-7.325 8.378-31.673 37.282-55.089 71.554-55.089z" fill="#b1e4f9"/><g><path d="m328.392 130.723c-6.251-.002-11.992-3.279-15.122-8.69-12.805-22.137-36.745-37.062-64.107-37.062-24.619 0-46.455 12.093-59.915 30.641 12.184-8.822 27.147-14.032 43.306-14.032 27.045 0 50.747 14.581 63.657 36.295 3.445 5.794 9.688 9.373 16.427 9.463 35.397.47 64.884 29.497 64.884 65.871 0 13.923-4.355 26.842-11.757 37.491 17.126-11.905 28.367-31.71 28.367-54.1 0-36.667-29.964-65.867-65.74-65.877z" fill="#90d8f9"/></g></g><path d="m295.031 327.417h-78.062c-2.738 0-4.958-2.22-4.958-4.958v-31.439c0-2.738 2.22-4.958 4.958-4.958h78.062c2.738 0 4.958 2.22 4.958 4.958v31.439c0 2.738-2.22 4.958-4.958 4.958z" fill="#b3e59f"/><path d="m295.031 286.062h-18.634c2.738 0 4.958 2.22 4.958 4.958v31.44c0 2.738-2.22 4.958-4.958 4.958h18.634c2.738 0 4.958-2.22 4.958-4.958v-31.44c0-2.738-2.22-4.958-4.958-4.958z" fill="#95d6a4"/><g><path d="m279.037 223.595h-46.074c-4.204 0-7.611-3.407-7.611-7.611s3.407-7.611 7.611-7.611h46.074c4.204 0 7.612 3.407 7.612 7.611s-3.408 7.611-7.612 7.611z" fill="#90d8f9"/></g></g></svg>