<svg id="Capa_1" enable-background="new 0 0 512 512" height="512" viewBox="0 0 512 512" width="512" xmlns="http://www.w3.org/2000/svg"><g><path d="m431.194 512h-350.388c-15.781 0-28.574-12.793-28.574-28.574v-454.852c-.001-15.781 12.792-28.574 28.574-28.574h350.389c15.781 0 28.574 12.793 28.574 28.574v454.852c0 15.781-12.794 28.574-28.575 28.574z" fill="#365e7d"/><path d="m431.194 0h-25.184c15.781 0 28.574 12.793 28.574 28.574v454.852c0 15.781-12.793 28.574-28.574 28.574h25.185c15.781 0 28.574-12.793 28.574-28.574v-454.852c0-15.781-12.793-28.574-28.575-28.574z" fill="#2b4d66"/><path d="m373.266 469.495h-119.879c-6.421 0-11.626-5.205-11.626-11.626v-218.368h143.131v218.368c0 6.421-5.205 11.626-11.626 11.626z" fill="#d0e2e7"/><path d="m362.571 239.501v218.367c0 6.421-5.205 11.626-11.626 11.626h22.32c6.421 0 11.626-5.205 11.626-11.626v-218.367z" fill="#b4d0d5"/><path d="m264.238 410.423h-148.884c-6.421 0-11.626-5.205-11.626-11.626v-173.382c0-6.421 5.205-11.626 11.626-11.626h160.51v185.008c.001 6.421-5.205 11.626-11.626 11.626z" fill="#ffe07d"/><path d="m254.082 213.789v185.008c0 6.421-5.205 11.626-11.626 11.626h21.783c6.421 0 11.626-5.205 11.626-11.626v-185.008z" fill="#ffd064"/><circle cx="273.059" cy="197.223" fill="#f6f9f9" r="135.213"/><path d="m273.059 62.01c-3.939 0-7.836.179-11.69.509 69.202 5.928 123.523 63.968 123.523 134.705s-54.322 128.776-123.523 134.704c3.854.33 7.751.509 11.69.509 74.676 0 135.213-60.537 135.213-135.213s-60.537-135.214-135.213-135.214z" fill="#dfeaef"/><circle cx="273.059" cy="197.223" fill="#b4d0d5" r="35.894"/><path d="m193.138 46.988c0-5.652-4.581-10.233-10.233-10.233h-84.344c-5.652 0-10.233 4.581-10.233 10.233v84.343c0 5.652 4.581 10.233 10.233 10.233h12.122c4.13 0 7.892-2.467 9.444-6.294 13.499-33.29 37.55-61.169 68.006-79.494 3.092-1.86 5.005-5.18 5.005-8.788z" fill="#d0e2e7"/><path d="m158.559 310.885 63.842-60.027c3.169-2.979 8.154-2.826 11.134.343 2.25 2.393 2.709 5.826 1.437 8.645l-36.15 79.826c-5.748 12.692-20.696 18.321-33.388 12.574-12.692-5.748-18.322-20.696-12.574-33.388 1.385-3.061 3.404-5.795 5.699-7.973z" fill="#365e7d"/><g><path d="m247.265 204.95h-10.101c-4.268 0-7.726-3.459-7.726-7.726s3.459-7.726 7.726-7.726h10.101c9.963 0 18.067-8.105 18.067-18.067v-10.101c0-4.268 3.459-7.726 7.726-7.726s7.726 3.459 7.726 7.726v10.101c.001 18.482-15.036 33.519-33.519 33.519z" fill="#dfeaef"/></g><g><path d="m308.953 204.95h-10.101c-18.483 0-33.52-15.037-33.52-33.52v-10.101c0-4.268 3.459-7.726 7.726-7.726s7.726 3.459 7.726 7.726v10.101c0 9.963 8.105 18.067 18.067 18.067h10.101c4.268 0 7.726 3.459 7.726 7.726s-3.457 7.727-7.725 7.727z" fill="#dfeaef"/></g><g><path d="m273.059 240.844c-4.268 0-7.726-3.459-7.726-7.726v-10.101c0-18.483 15.037-33.52 33.52-33.52h10.101c4.268 0 7.726 3.459 7.726 7.726s-3.459 7.726-7.726 7.726h-10.101c-9.963 0-18.067 8.105-18.067 18.067v10.101c-.001 4.269-3.46 7.727-7.727 7.727z" fill="#dfeaef"/></g><g><path d="m273.059 240.844c-4.268 0-7.726-3.459-7.726-7.726v-10.101c0-9.963-8.105-18.067-18.067-18.067h-10.101c-4.268 0-7.726-3.459-7.726-7.726s3.459-7.726 7.726-7.726h10.101c18.483 0 33.52 15.037 33.52 33.52v10.101c-.001 4.267-3.46 7.725-7.727 7.725z" fill="#dfeaef"/></g><g><path d="m241.761 385.287h-32.87c-4.268 0-7.726-3.459-7.726-7.726s3.459-7.726 7.726-7.726h32.87c4.268 0 7.726 3.459 7.726 7.726s-3.458 7.726-7.726 7.726z" fill="#365e7d"/></g><g><g><path d="m346.373 371.817h-33.046c-4.268 0-7.726-3.459-7.726-7.726s3.459-7.726 7.726-7.726h33.046c4.268 0 7.726 3.459 7.726 7.726s-3.459 7.726-7.726 7.726z" fill="#2b4d66"/></g><g><path d="m346.373 403.472h-33.046c-4.268 0-7.726-3.459-7.726-7.726s3.459-7.726 7.726-7.726h33.046c4.268 0 7.726 3.459 7.726 7.726s-3.459 7.726-7.726 7.726z" fill="#2b4d66"/></g><g><path d="m346.373 435.127h-33.046c-4.268 0-7.726-3.459-7.726-7.726s3.459-7.726 7.726-7.726h33.046c4.268 0 7.726 3.459 7.726 7.726s-3.459 7.726-7.726 7.726z" fill="#2b4d66"/></g></g><g><path d="m412.292 45.511h-32.356c-4.268 0-7.726-3.459-7.726-7.726s3.459-7.726 7.726-7.726h32.356c4.268 0 7.726 3.459 7.726 7.726s-3.458 7.726-7.726 7.726z" fill="#f6f9f9"/></g><g><path d="m412.292 69.737h-32.356c-4.268 0-7.726-3.459-7.726-7.726s3.459-7.726 7.726-7.726h32.356c4.268 0 7.726 3.459 7.726 7.726s-3.458 7.726-7.726 7.726z" fill="#f6f9f9"/></g></g></svg>