<svg id="icons" enable-background="new 0 0 64 64" height="512" viewBox="0 0 64 64" width="512" xmlns="http://www.w3.org/2000/svg"><path d="m49 34.502v8c0 3.32-2.689 6-6 6h-9-4-9.01c-3.311 0-6-2.68-6-6v-8c0 3.31 2.689 6 6 6h22.01c3.311 0 6-2.69 6-6z" fill="#ccd1d9"/><path d="m49 26.502v8c0 3.31-2.689 6-6 6h-22.01c-3.311 0-6-2.69-6-6v-8c0 3.31 2.689 6 6 6h22.01c3.311 0 6-2.69 6-6z" fill="#ccd1d9"/><path d="m43 39.501h-22.01c-3.311 0-6-2.69-6-6v2.002c0 3.31 2.689 6 6 6h22.01c3.311 0 6-2.69 6-6v-2.002c0 3.31-2.689 6-6 6z" fill="#aab2bd"/><path d="m49 18.502v8c0 3.31-2.689 6-6 6h-22.01c-3.311 0-6-2.69-6-6v-8c0 3.31 2.689 6 6 6h22.01c3.311 0 6-2.69 6-6z" fill="#ccd1d9"/><path d="m49 8.5v10.002c0 3.31-2.689 6-6 6h-22.01c-3.311 0-6-2.69-6-6v-10.002c0 3.31 2.689 6 6 6h22.01c3.311 0 6-2.69 6-6z" fill="#ccd1d9"/><path d="m43 2.5c3.311 0 6 2.69 6 6s-2.689 6-6 6h-22.01c-3.311 0-6-2.69-6-6s2.689-6 6-6z" fill="#e6e9ed"/><g fill="#656d78"><path d="m30 48.502h4v2.998h-4z"/><path d="m1 56.5h24v4h-24z"/><path d="m39 56.5h24v4h-24z"/></g><path d="m29 51.5h6v10h-6z" fill="none"/><path d="m39 60.5c0 .55-.45 1-1 1h-12c-.55 0-1-.45-1-1v-4c0-.55.45-1 1-1h12c.55 0 1 .45 1 1z" fill="#ed5565"/><path d="m30 61.5c-.55 0-1-.45-1-1v-8c0-.55.45-1 1-1h4c.55 0 1 .45 1 1v8c0 .55-.45 1-1 1z" fill="#ed5565"/><path d="m43 30.503h-22.01c-3.311 0-6-2.69-6-6v2.002c0 3.31 2.689 6 6 6h22.01c3.311 0 6-2.69 6-6v-2.002c0 3.31-2.689 6-6 6z" fill="#aab2bd"/><path d="m43 21.5h-22.01c-3.311 0-6-2.69-6-6v2.002c0 3.31 2.689 6 6 6h22.01c3.311 0 6-2.69 6-6v-2.002c0 3.31-2.689 6-6 6z" fill="#aab2bd"/></svg>