<svg id="icons" enable-background="new 0 0 64 64" height="512" viewBox="0 0 64 64" width="512" xmlns="http://www.w3.org/2000/svg"><path d="m24 29-3 3v-5c0-4.97 4.03-9 9-9h8v4c2.76 0 5 2.24 5 5v5l-3-3s-3.71 2-8 2-8-2-8-2z" fill="#965353"/><path d="m38 25c1.103 0 2 .897 2 2v2l3 3v-5c0-2.76-2.24-5-5-5v-4h-3v4c0 1.657 1.343 3 3 3z" fill="#844747"/><path d="m32 47c1.8 0 3.5-.43 5-1.2v3.2l-2 2-3-1-3 1-2-2v-3.2c1.5.77 3.2 1.2 5 1.2z" fill="#87bcf4"/><path d="m43 32v4c0 4.27-2.44 7.98-6 9.8-1.5.771-3.2 1.2-5 1.2s-3.5-.43-5-1.2c-3.56-1.819-6-5.53-6-9.8v-4l3-3s3.71 2 8 2 8-2 8-2z" fill="#eac6bb"/><path d="m40 29-.003.002v6.998c0 4.27-2.44 7.98-6 9.8-1.075.552-2.255.921-3.499 1.09.492.067.992.11 1.502.11 1.8 0 3.5-.43 5-1.2 3.56-1.819 6-5.53 6-9.8v-4z" fill="#d3b1a9"/><path d="m29 51 3-1 3 1 2-2h4c3.32 0 6 2.68 6 6v.29 5.71c0 1.1-.89 2-2 2h-26c-1.11 0-2-.9-2-2v-5.71-.29c0-3.32 2.68-6 6-6h4z" fill="#5d9cec"/><path d="m41 49h-3.003c3.32 0 6 2.68 6 6v.29 5.71c0 1.1-.89 2-2 2h3.003c1.11 0 2-.9 2-2v-5.71-.29c0-3.32-2.68-6-6-6z" fill="#4a89dc"/><path d="m32.03 56c-.553 0-1.005-.447-1.005-1s.442-1 .994-1h.011c.552 0 1 .447 1 1s-.448 1-1 1z" fill="#4a89dc"/><path d="m32.03 60c-.553 0-1.005-.447-1.005-1s.442-1 .994-1h.011c.552 0 1 .447 1 1s-.448 1-1 1z" fill="#4a89dc"/><path d="m43.48 6.123-11.001-6.001c-.297-.163-.66-.163-.957 0l-11.002 6.001c-.322.175-.522.512-.522.877s.2.703.521.878l11.002 6.001c.148.082.313.122.479.122s.33-.041.479-.122l11.001-6.001c.322-.175.522-.512.522-.878s-.2-.702-.522-.877z" fill="#48cfad"/><g fill="#e6e9ed"><path d="m54.998 8h-8.998c-.553 0-1-.448-1-1s.447-1 1-1h8.998c.553 0 1 .448 1 1s-.447 1-1 1z"/><path d="m54.998 15.998c-.553 0-1-.448-1-1v-7.998c0-.552.447-1 1-1s1 .448 1 1v7.998c0 .552-.447 1-1 1z"/><path d="m54.998 15.998c-.256 0-.512-.098-.707-.293-.391-.391-.391-1.023 0-1.414l2-2c.391-.391 1.023-.391 1.414 0s.391 1.023 0 1.414l-2 2c-.195.195-.451.293-.707.293z"/><path d="m54.998 15.998c-.256 0-.512-.098-.707-.293l-2-2c-.391-.391-.391-1.023 0-1.414s1.023-.391 1.414 0l2 2c.391.391.391 1.023 0 1.414-.195.195-.451.293-.707.293z"/><path d="m63 16.998h-16.002c-.553 0-1 .448-1 1v8.001c0 .552.447 1 1 1h16.002c.553 0 1-.448 1-1v-8.001c0-.553-.447-1-1-1z"/><path d="m18 8h-8.998c-.553 0-1-.448-1-1s.447-1 1-1h8.998c.553 0 1 .448 1 1s-.447 1-1 1z"/><path d="m9.002 15.998c-.553 0-1-.448-1-1v-7.998c0-.552.447-1 1-1s1 .448 1 1v7.998c0 .552-.447 1-1 1z"/><path d="m9.002 15.998c-.256 0-.512-.098-.707-.293l-2-2c-.391-.391-.391-1.023 0-1.414s1.023-.391 1.414 0l2 2c.391.391.391 1.023 0 1.414-.195.195-.451.293-.707.293z"/><path d="m9.002 15.998c-.256 0-.512-.098-.707-.293-.391-.391-.391-1.023 0-1.414l2-2c.391-.391 1.023-.391 1.414 0s.391 1.023 0 1.414l-2 2c-.195.195-.451.293-.707.293z"/><path d="m17.002 16.998h-16.002c-.553 0-1 .448-1 1v8.001c0 .552.447 1 1 1h16.002c.553 0 1-.448 1-1v-8.001c0-.553-.447-1-1-1z"/></g><path d="m13 23h-8c-.553 0-1-.448-1-1s.447-1 1-1h8c.553 0 1 .448 1 1s-.447 1-1 1z" fill="#ccd1d9"/><path d="m59 22.999h-8c-.553 0-1-.448-1-1s.447-1 1-1h8c.553 0 1 .448 1 1s-.447 1-1 1z" fill="#ccd1d9"/><path d="m36 8h-8c-.553 0-1-.448-1-1s.447-1 1-1h8c.553 0 1 .448 1 1s-.447 1-1 1z" fill="#37bc9b"/></svg>