<svg id="icons" enable-background="new 0 0 64 64" height="512" viewBox="0 0 64 64" width="512" xmlns="http://www.w3.org/2000/svg"><path d="m36 1.5h-8c-.553 0-1 .447-1 1v3c0 .553.447 1 1 1h8c.553 0 1-.447 1-1v-3c0-.552-.447-1-1-1z" fill="#ffd2a6"/><path d="m23.86 53.5h16.28l1.07 4h-18.42z" fill="#efb381"/><path d="m27.169 44.227c-.519-.191-1.093.084-1.277.605l-.954 2.668h-2.877l.63-1.764c.187-.52-.085-1.092-.605-1.277-.52-.189-1.093.084-1.277.605l-5.75 16.1c-.02.055-.015.109-.023.164-.012.057-.036.111-.036.172 0 .01.005.018.006.027.002.076.024.145.043.217.015.055.02.113.042.164.025.055.067.1.103.15.038.057.069.115.118.16.037.037.086.059.13.088.064.045.125.092.199.121.009.002.015.01.023.014.11.039.225.059.336.059h5c.122 0 .238-.029.35-.07.036-.014.068-.033.102-.051.072-.037.138-.08.198-.133.031-.027.061-.053.087-.082.055-.061.098-.129.137-.203.018-.033.04-.063.054-.1.004-.01.011-.016.015-.025l5.833-16.332c.185-.52-.087-1.092-.607-1.277z" fill="#f7c292"/><path d="m48.951 61.744c.019-.072.041-.143.043-.217.001-.009.006-.017.006-.027 0-.061-.024-.115-.035-.172-.009-.055-.004-.109-.023-.164l-6.071-17c-.186-.52-.761-.795-1.277-.605-.521.186-.792.758-.605 1.277l.951 2.664h-2.877l-.894-2.502c-.186-.52-.761-.795-1.277-.605-.521.186-.792.758-.605 1.277l5.773 16.166c.004.01.011.016.015.025.014.037.036.066.054.1.039.074.082.143.137.201.026.031.056.057.087.084.061.053.126.096.198.133.034.018.065.037.102.051.111.041.228.07.35.07h5c.111 0 .226-.02.336-.059.009-.004.015-.012.022-.014.075-.029.136-.076.2-.121.044-.029.093-.051.13-.088.049-.045.08-.105.118-.16.035-.051.077-.096.103-.15.02-.051.025-.109.039-.164z" fill="#f7c292"/><path d="m59 5.5h-23-8-23c-1.11 0-2 .89-2 2v38h58v-38c0-1.11-.89-2-2-2z" fill="#48cfad"/><path d="m61.999 45.502h-59.998c-.553 0-1 .447-1 1v1.998c0 .553.447 1 1 1h59.998c.553 0 1-.447 1-1v-1.998c0-.553-.447-1-1-1z" fill="#ffd2a6"/><g fill="#e6e9ed"><path d="m32 17.5c-.553 0-1-.448-1-1v-3c0-.553.447-1 1-1s1 .447 1 1v3c0 .551-.447 1-1 1z"/><path d="m32 38.498c-.553 0-1-.447-1-1v-3c0-.553.447-1 1-1s1 .447 1 1v3c0 .553-.447 1-1 1z"/><path d="m47 21.499h-8c-.553 0-1-.447-1-1s.447-1 1-1h8c.553 0 1 .447 1 1s-.447 1-1 1z"/><path d="m47 25.508c-.553 0-1-.447-1-1v-4.01c0-.553.447-1 1-1s1 .447 1 1v4.01c0 .553-.447 1-1 1z"/><path d="m25.005 21.499h-8c-.553 0-1-.447-1-1s.447-1 1-1h8c.553 0 1 .447 1 1s-.447 1-1 1z"/><path d="m17.005 25.508c-.553 0-1-.447-1-1v-4.01c0-.553.447-1 1-1s1 .447 1 1v4.01c0 .553-.447 1-1 1z"/><path d="m16.917 34.5c-.553 0-1-.447-1-1v-3.992c0-.553.447-1 1-1s1 .447 1 1v3.992c0 .553-.447 1-1 1z"/><path d="m47 34.5h-30.083c-.553 0-1-.447-1-1 0-.552.447-1 1-1h30.083c.553 0 1 .447 1 1s-.447 1-1 1z"/><path d="m47 34.5c-.553 0-1-.447-1-1v-4c0-.553.447-1 1-1s1 .447 1 1v4c0 .553-.447 1-1 1z"/></g><path d="m24.002 23.507h-13.998c-.553 0-1 .448-1 1v5.001c0 .553.447 1 1 1h13.998c.553 0 1-.447 1-1v-5.001c0-.551-.447-1-1-1z" fill="#fff"/><path d="m54 23.508h-13.998c-.553 0-1 .447-1 1v5.001c0 .552.447 1 1 1h13.998c.553 0 1-.448 1-1v-5.001c0-.552-.447-1-1-1z" fill="#fff"/><path d="m38 8.5h-12c-1.654 0-3 1.346-3 3s1.346 3 3 3h12c1.654 0 3-1.346 3-3s-1.346-3-3-3z" fill="#fff"/><path d="m38 36.498h-12c-1.654 0-3 1.346-3 3s1.346 3 3 3h12c1.654 0 3-1.346 3-3s-1.346-3-3-3z" fill="#fff"/><path d="m39.496 19.63-7-3.999c-.307-.176-.686-.176-.992 0l-7 3.999c-.312.178-.504.509-.504.869s.192.69.504.868l7 4c.153.088.325.132.496.132s.343-.044.496-.132l7-4c.312-.178.504-.509.504-.868s-.192-.691-.504-.869z" fill="#fff"/></svg>