<svg xmlns="http://www.w3.org/2000/svg" width="1336" height="720" fill="none">
  <g opacity=".7" fill="#2E3A59">
    <circle cx="2" cy="22" r="2"/>
    <circle cx="38" cy="22" r="2"/>
    <circle cx="74" cy="22" r="2"/>
    <circle cx="110" cy="22" r="2"/>
    <circle cx="146" cy="22" r="2"/>
    <circle cx="182" cy="22" r="2"/>
    <circle cx="218" cy="22" r="2"/>
    <circle cx="254" cy="22" r="2"/>
    <circle cx="1046" cy="22" r="2"/>
    <circle cx="290" cy="22" r="2"/>
    <circle cx="1082" cy="22" r="2"/>
    <circle cx="326" cy="22" r="2"/>
    <circle cx="1118" cy="22" r="2"/>
    <circle cx="362" cy="22" r="2"/>
    <circle cx="1154" cy="22" r="2"/>
    <circle cx="398" cy="22" r="2"/>
    <circle cx="1190" cy="22" r="2"/>
    <circle cx="722" cy="22" r="2"/>
    <circle cx="434" cy="22" r="2"/>
    <circle cx="1226" cy="22" r="2"/>
    <circle cx="758" cy="22" r="2"/>
    <circle cx="470" cy="22" r="2"/>
    <circle cx="1262" cy="22" r="2"/>
    <circle cx="794" cy="22" r="2"/>
    <circle cx="506" cy="22" r="2"/>
    <circle cx="1298" cy="22" r="2"/>
    <circle cx="830" cy="22" r="2"/>
    <circle cx="542" cy="22" r="2"/>
    <circle cx="1334" cy="22" r="2"/>
    <circle cx="866" cy="22" r="2"/>
    <circle cx="578" cy="22" r="2"/>
    <circle cx="902" cy="22" r="2"/>
    <circle cx="614" cy="22" r="2"/>
    <circle cx="938" cy="22" r="2"/>
    <circle cx="650" cy="22" r="2"/>
    <circle cx="974" cy="22" r="2"/>
    <circle cx="686" cy="22" r="2"/>
    <circle cx="1010" cy="22" r="2"/>
    <circle cx="2" cy="58" r="2"/>
    <circle cx="38" cy="58" r="2"/>
    <circle cx="74" cy="58" r="2"/>
    <circle cx="110" cy="58" r="2"/>
    <circle cx="146" cy="58" r="2"/>
    <circle cx="182" cy="58" r="2"/>
    <circle cx="218" cy="58" r="2"/>
    <circle cx="254" cy="58" r="2"/>
    <circle cx="1046" cy="58" r="2"/>
    <circle cx="290" cy="58" r="2"/>
    <circle cx="1082" cy="58" r="2"/>
    <circle cx="326" cy="58" r="2"/>
    <circle cx="1118" cy="58" r="2"/>
    <circle cx="362" cy="58" r="2"/>
    <circle cx="1154" cy="58" r="2"/>
    <circle cx="398" cy="58" r="2"/>
    <circle cx="1190" cy="58" r="2"/>
    <circle cx="722" cy="58" r="2"/>
    <circle cx="434" cy="58" r="2"/>
    <circle cx="1226" cy="58" r="2"/>
    <circle cx="758" cy="58" r="2"/>
    <circle cx="470" cy="58" r="2"/>
    <circle cx="1262" cy="58" r="2"/>
    <circle cx="794" cy="58" r="2"/>
    <circle cx="506" cy="58" r="2"/>
    <circle cx="1298" cy="58" r="2"/>
    <circle cx="830" cy="58" r="2"/>
    <circle cx="542" cy="58" r="2"/>
    <circle cx="1334" cy="58" r="2"/>
    <circle cx="866" cy="58" r="2"/>
    <circle cx="578" cy="58" r="2"/>
    <circle cx="902" cy="58" r="2"/>
    <circle cx="614" cy="58" r="2"/>
    <circle cx="938" cy="58" r="2"/>
    <circle cx="650" cy="58" r="2"/>
    <circle cx="974" cy="58" r="2"/>
    <circle cx="686" cy="58" r="2"/>
    <circle cx="1010" cy="58" r="2"/>
    <circle cx="2" cy="94" r="2"/>
    <circle cx="38" cy="94" r="2"/>
    <circle cx="74" cy="94" r="2"/>
    <circle cx="110" cy="94" r="2"/>
    <circle cx="146" cy="94" r="2"/>
    <circle cx="182" cy="94" r="2"/>
    <circle cx="218" cy="94" r="2"/>
    <circle cx="254" cy="94" r="2"/>
    <circle cx="1046" cy="94" r="2"/>
    <circle cx="290" cy="94" r="2"/>
    <circle cx="1082" cy="94" r="2"/>
    <circle cx="326" cy="94" r="2"/>
    <circle cx="1118" cy="94" r="2"/>
    <circle cx="362" cy="94" r="2"/>
    <circle cx="1154" cy="94" r="2"/>
    <circle cx="398" cy="94" r="2"/>
    <circle cx="1190" cy="94" r="2"/>
    <circle cx="722" cy="94" r="2"/>
    <circle cx="434" cy="94" r="2"/>
    <circle cx="1226" cy="94" r="2"/>
    <circle cx="758" cy="94" r="2"/>
    <circle cx="470" cy="94" r="2"/>
    <circle cx="1262" cy="94" r="2"/>
    <circle cx="794" cy="94" r="2"/>
    <circle cx="506" cy="94" r="2"/>
    <circle cx="1298" cy="94" r="2"/>
    <circle cx="830" cy="94" r="2"/>
    <circle cx="542" cy="94" r="2"/>
    <circle cx="1334" cy="94" r="2"/>
    <circle cx="866" cy="94" r="2"/>
    <circle cx="578" cy="94" r="2"/>
    <circle cx="902" cy="94" r="2"/>
    <circle cx="614" cy="94" r="2"/>
    <circle cx="938" cy="94" r="2"/>
    <circle cx="650" cy="94" r="2"/>
    <circle cx="974" cy="94" r="2"/>
    <circle cx="686" cy="94" r="2"/>
    <circle cx="1010" cy="94" r="2"/>
    <circle cx="2" cy="130" r="2"/>
    <circle cx="38" cy="130" r="2"/>
    <circle cx="74" cy="130" r="2"/>
    <circle cx="110" cy="130" r="2"/>
    <circle cx="146" cy="130" r="2"/>
    <circle cx="182" cy="130" r="2"/>
    <circle cx="218" cy="130" r="2"/>
    <circle cx="254" cy="130" r="2"/>
    <circle cx="1046" cy="130" r="2"/>
    <circle cx="290" cy="130" r="2"/>
    <circle cx="1082" cy="130" r="2"/>
    <circle cx="326" cy="130" r="2"/>
    <circle cx="1118" cy="130" r="2"/>
    <circle cx="362" cy="130" r="2"/>
    <circle cx="1154" cy="130" r="2"/>
    <circle cx="398" cy="130" r="2"/>
    <circle cx="1190" cy="130" r="2"/>
    <circle cx="722" cy="130" r="2"/>
    <circle cx="434" cy="130" r="2"/>
    <circle cx="1226" cy="130" r="2"/>
    <circle cx="758" cy="130" r="2"/>
    <circle cx="470" cy="130" r="2"/>
    <circle cx="1262" cy="130" r="2"/>
    <circle cx="794" cy="130" r="2"/>
    <circle cx="506" cy="130" r="2"/>
    <circle cx="1298" cy="130" r="2"/>
    <circle cx="830" cy="130" r="2"/>
    <circle cx="542" cy="130" r="2"/>
    <circle cx="1334" cy="130" r="2"/>
    <circle cx="866" cy="130" r="2"/>
    <circle cx="578" cy="130" r="2"/>
    <circle cx="902" cy="130" r="2"/>
    <circle cx="614" cy="130" r="2"/>
    <circle cx="938" cy="130" r="2"/>
    <circle cx="650" cy="130" r="2"/>
    <circle cx="974" cy="130" r="2"/>
    <circle cx="686" cy="130" r="2"/>
    <circle cx="1010" cy="130" r="2"/>
    <circle cx="2" cy="166" r="2"/>
    <circle cx="38" cy="166" r="2"/>
    <circle cx="74" cy="166" r="2"/>
    <circle cx="110" cy="166" r="2"/>
    <circle cx="146" cy="166" r="2"/>
    <circle cx="182" cy="166" r="2"/>
    <circle cx="218" cy="166" r="2"/>
    <circle cx="254" cy="166" r="2"/>
    <circle cx="1046" cy="166" r="2"/>
    <circle cx="290" cy="166" r="2"/>
    <circle cx="1082" cy="166" r="2"/>
    <circle cx="326" cy="166" r="2"/>
    <circle cx="1118" cy="166" r="2"/>
    <circle cx="362" cy="166" r="2"/>
    <circle cx="1154" cy="166" r="2"/>
    <circle cx="398" cy="166" r="2"/>
    <circle cx="1190" cy="166" r="2"/>
    <circle cx="722" cy="166" r="2"/>
    <circle cx="434" cy="166" r="2"/>
    <circle cx="1226" cy="166" r="2"/>
    <circle cx="758" cy="166" r="2"/>
    <circle cx="470" cy="166" r="2"/>
    <circle cx="1262" cy="166" r="2"/>
    <circle cx="794" cy="166" r="2"/>
    <circle cx="506" cy="166" r="2"/>
    <circle cx="1298" cy="166" r="2"/>
    <circle cx="830" cy="166" r="2"/>
    <circle cx="542" cy="166" r="2"/>
    <circle cx="1334" cy="166" r="2"/>
    <circle cx="866" cy="166" r="2"/>
    <circle cx="578" cy="166" r="2"/>
    <circle cx="902" cy="166" r="2"/>
    <circle cx="614" cy="166" r="2"/>
    <circle cx="938" cy="166" r="2"/>
    <circle cx="650" cy="166" r="2"/>
    <circle cx="974" cy="166" r="2"/>
    <circle cx="686" cy="166" r="2"/>
    <circle cx="1010" cy="166" r="2"/>
    <circle cx="2" cy="202" r="2"/>
    <circle cx="38" cy="202" r="2"/>
    <circle cx="74" cy="202" r="2"/>
    <circle cx="110" cy="202" r="2"/>
    <circle cx="146" cy="202" r="2"/>
    <circle cx="182" cy="202" r="2"/>
    <circle cx="218" cy="202" r="2"/>
    <circle cx="254" cy="202" r="2"/>
    <circle cx="1046" cy="202" r="2"/>
    <circle cx="290" cy="202" r="2"/>
    <circle cx="1082" cy="202" r="2"/>
    <circle cx="326" cy="202" r="2"/>
    <circle cx="1118" cy="202" r="2"/>
    <circle cx="362" cy="202" r="2"/>
    <circle cx="1154" cy="202" r="2"/>
    <circle cx="398" cy="202" r="2"/>
    <circle cx="1190" cy="202" r="2"/>
    <circle cx="722" cy="202" r="2"/>
    <circle cx="434" cy="202" r="2"/>
    <circle cx="1226" cy="202" r="2"/>
    <circle cx="758" cy="202" r="2"/>
    <circle cx="470" cy="202" r="2"/>
    <circle cx="1262" cy="202" r="2"/>
    <circle cx="794" cy="202" r="2"/>
    <circle cx="506" cy="202" r="2"/>
    <circle cx="1298" cy="202" r="2"/>
    <circle cx="830" cy="202" r="2"/>
    <circle cx="542" cy="202" r="2"/>
    <circle cx="1334" cy="202" r="2"/>
    <circle cx="866" cy="202" r="2"/>
    <circle cx="578" cy="202" r="2"/>
    <circle cx="902" cy="202" r="2"/>
    <circle cx="614" cy="202" r="2"/>
    <circle cx="938" cy="202" r="2"/>
    <circle cx="650" cy="202" r="2"/>
    <circle cx="974" cy="202" r="2"/>
    <circle cx="686" cy="202" r="2"/>
    <circle cx="1010" cy="202" r="2"/>
    <circle cx="2" cy="238" r="2"/>
    <circle cx="38" cy="238" r="2"/>
    <circle cx="74" cy="238" r="2"/>
    <circle cx="110" cy="238" r="2"/>
    <circle cx="146" cy="238" r="2"/>
    <circle cx="182" cy="238" r="2"/>
    <circle cx="218" cy="238" r="2"/>
    <circle cx="254" cy="238" r="2"/>
    <circle cx="1046" cy="238" r="2"/>
    <circle cx="290" cy="238" r="2"/>
    <circle cx="1082" cy="238" r="2"/>
    <circle cx="326" cy="238" r="2"/>
    <circle cx="1118" cy="238" r="2"/>
    <circle cx="362" cy="238" r="2"/>
    <circle cx="1154" cy="238" r="2"/>
    <circle cx="398" cy="238" r="2"/>
    <circle cx="1190" cy="238" r="2"/>
    <circle cx="722" cy="238" r="2"/>
    <circle cx="434" cy="238" r="2"/>
    <circle cx="1226" cy="238" r="2"/>
    <circle cx="758" cy="238" r="2"/>
    <circle cx="470" cy="238" r="2"/>
    <circle cx="1262" cy="238" r="2"/>
    <circle cx="794" cy="238" r="2"/>
    <circle cx="506" cy="238" r="2"/>
    <circle cx="1298" cy="238" r="2"/>
    <circle cx="830" cy="238" r="2"/>
    <circle cx="542" cy="238" r="2"/>
    <circle cx="1334" cy="238" r="2"/>
    <circle cx="866" cy="238" r="2"/>
    <circle cx="578" cy="238" r="2"/>
    <circle cx="902" cy="238" r="2"/>
    <circle cx="614" cy="238" r="2"/>
    <circle cx="938" cy="238" r="2"/>
    <circle cx="650" cy="238" r="2"/>
    <circle cx="974" cy="238" r="2"/>
    <circle cx="686" cy="238" r="2"/>
    <circle cx="1010" cy="238" r="2"/>
    <circle cx="2" cy="274" r="2"/>
    <circle cx="38" cy="274" r="2"/>
    <circle cx="74" cy="274" r="2"/>
    <circle cx="110" cy="274" r="2"/>
    <circle cx="146" cy="274" r="2"/>
    <circle cx="182" cy="274" r="2"/>
    <circle cx="218" cy="274" r="2"/>
    <circle cx="254" cy="274" r="2"/>
    <circle cx="1046" cy="274" r="2"/>
    <circle cx="290" cy="274" r="2"/>
    <circle cx="1082" cy="274" r="2"/>
    <circle cx="326" cy="274" r="2"/>
    <circle cx="1118" cy="274" r="2"/>
    <circle cx="362" cy="274" r="2"/>
    <circle cx="1154" cy="274" r="2"/>
    <circle cx="398" cy="274" r="2"/>
    <circle cx="1190" cy="274" r="2"/>
    <circle cx="722" cy="274" r="2"/>
    <circle cx="434" cy="274" r="2"/>
    <circle cx="1226" cy="274" r="2"/>
    <circle cx="758" cy="274" r="2"/>
    <circle cx="470" cy="274" r="2"/>
    <circle cx="1262" cy="274" r="2"/>
    <circle cx="794" cy="274" r="2"/>
    <circle cx="506" cy="274" r="2"/>
    <circle cx="1298" cy="274" r="2"/>
    <circle cx="830" cy="274" r="2"/>
    <circle cx="542" cy="274" r="2"/>
    <circle cx="1334" cy="274" r="2"/>
    <circle cx="866" cy="274" r="2"/>
    <circle cx="578" cy="274" r="2"/>
    <circle cx="902" cy="274" r="2"/>
    <circle cx="614" cy="274" r="2"/>
    <circle cx="938" cy="274" r="2"/>
    <circle cx="650" cy="274" r="2"/>
    <circle cx="974" cy="274" r="2"/>
    <circle cx="686" cy="274" r="2"/>
    <circle cx="1010" cy="274" r="2"/>
    <circle cx="2" cy="310" r="2"/>
    <circle cx="38" cy="310" r="2"/>
    <circle cx="74" cy="310" r="2"/>
    <circle cx="110" cy="310" r="2"/>
    <circle cx="146" cy="310" r="2"/>
    <circle cx="182" cy="310" r="2"/>
    <circle cx="218" cy="310" r="2"/>
    <circle cx="254" cy="310" r="2"/>
    <circle cx="1046" cy="310" r="2"/>
    <circle cx="290" cy="310" r="2"/>
    <circle cx="1082" cy="310" r="2"/>
    <circle cx="326" cy="310" r="2"/>
    <circle cx="1118" cy="310" r="2"/>
    <circle cx="362" cy="310" r="2"/>
    <circle cx="1154" cy="310" r="2"/>
    <circle cx="398" cy="310" r="2"/>
    <circle cx="1190" cy="310" r="2"/>
    <circle cx="722" cy="310" r="2"/>
    <circle cx="434" cy="310" r="2"/>
    <circle cx="1226" cy="310" r="2"/>
    <circle cx="758" cy="310" r="2"/>
    <circle cx="470" cy="310" r="2"/>
    <circle cx="1262" cy="310" r="2"/>
    <circle cx="794" cy="310" r="2"/>
    <circle cx="506" cy="310" r="2"/>
    <circle cx="1298" cy="310" r="2"/>
    <circle cx="830" cy="310" r="2"/>
    <circle cx="542" cy="310" r="2"/>
    <circle cx="1334" cy="310" r="2"/>
    <circle cx="866" cy="310" r="2"/>
    <circle cx="578" cy="310" r="2"/>
    <circle cx="902" cy="310" r="2"/>
    <circle cx="614" cy="310" r="2"/>
    <circle cx="938" cy="310" r="2"/>
    <circle cx="650" cy="310" r="2"/>
    <circle cx="974" cy="310" r="2"/>
    <circle cx="686" cy="310" r="2"/>
    <circle cx="1010" cy="310" r="2"/>
    <circle cx="2" cy="346" r="2"/>
    <circle cx="38" cy="346" r="2"/>
    <circle cx="74" cy="346" r="2"/>
    <circle cx="110" cy="346" r="2"/>
    <circle cx="146" cy="346" r="2"/>
    <circle cx="182" cy="346" r="2"/>
    <circle cx="218" cy="346" r="2"/>
    <circle cx="254" cy="346" r="2"/>
    <circle cx="1046" cy="346" r="2"/>
    <circle cx="290" cy="346" r="2"/>
    <circle cx="1082" cy="346" r="2"/>
    <circle cx="326" cy="346" r="2"/>
    <circle cx="1118" cy="346" r="2"/>
    <circle cx="362" cy="346" r="2"/>
    <circle cx="1154" cy="346" r="2"/>
    <circle cx="398" cy="346" r="2"/>
    <circle cx="1190" cy="346" r="2"/>
    <circle cx="722" cy="346" r="2"/>
    <circle cx="434" cy="346" r="2"/>
    <circle cx="1226" cy="346" r="2"/>
    <circle cx="758" cy="346" r="2"/>
    <circle cx="470" cy="346" r="2"/>
    <circle cx="1262" cy="346" r="2"/>
    <circle cx="794" cy="346" r="2"/>
    <circle cx="506" cy="346" r="2"/>
    <circle cx="1298" cy="346" r="2"/>
    <circle cx="830" cy="346" r="2"/>
    <circle cx="542" cy="346" r="2"/>
    <circle cx="1334" cy="346" r="2"/>
    <circle cx="866" cy="346" r="2"/>
    <circle cx="578" cy="346" r="2"/>
    <circle cx="902" cy="346" r="2"/>
    <circle cx="614" cy="346" r="2"/>
    <circle cx="938" cy="346" r="2"/>
    <circle cx="650" cy="346" r="2"/>
    <circle cx="974" cy="346" r="2"/>
    <circle cx="686" cy="346" r="2"/>
    <circle cx="1010" cy="346" r="2"/>
    <circle cx="2" cy="382" r="2"/>
    <circle cx="38" cy="382" r="2"/>
    <circle cx="74" cy="382" r="2"/>
    <circle cx="110" cy="382" r="2"/>
    <circle cx="146" cy="382" r="2"/>
    <circle cx="182" cy="382" r="2"/>
    <circle cx="218" cy="382" r="2"/>
    <circle cx="254" cy="382" r="2"/>
    <circle cx="1046" cy="382" r="2"/>
    <circle cx="290" cy="382" r="2"/>
    <circle cx="1082" cy="382" r="2"/>
    <circle cx="326" cy="382" r="2"/>
    <circle cx="1118" cy="382" r="2"/>
    <circle cx="362" cy="382" r="2"/>
    <circle cx="1154" cy="382" r="2"/>
    <circle cx="398" cy="382" r="2"/>
    <circle cx="1190" cy="382" r="2"/>
    <circle cx="722" cy="382" r="2"/>
    <circle cx="434" cy="382" r="2"/>
    <circle cx="1226" cy="382" r="2"/>
    <circle cx="758" cy="382" r="2"/>
    <circle cx="470" cy="382" r="2"/>
    <circle cx="1262" cy="382" r="2"/>
    <circle cx="794" cy="382" r="2"/>
    <circle cx="506" cy="382" r="2"/>
    <circle cx="1298" cy="382" r="2"/>
    <circle cx="830" cy="382" r="2"/>
    <circle cx="542" cy="382" r="2"/>
    <circle cx="1334" cy="382" r="2"/>
    <circle cx="866" cy="382" r="2"/>
    <circle cx="578" cy="382" r="2"/>
    <circle cx="902" cy="382" r="2"/>
    <circle cx="614" cy="382" r="2"/>
    <circle cx="938" cy="382" r="2"/>
    <circle cx="650" cy="382" r="2"/>
    <circle cx="974" cy="382" r="2"/>
    <circle cx="686" cy="382" r="2"/>
    <circle cx="1010" cy="382" r="2"/>
    <circle cx="2" cy="418" r="2"/>
    <circle cx="38" cy="418" r="2"/>
    <circle cx="74" cy="418" r="2"/>
    <circle cx="110" cy="418" r="2"/>
    <circle cx="146" cy="418" r="2"/>
    <circle cx="182" cy="418" r="2"/>
    <circle cx="218" cy="418" r="2"/>
    <circle cx="254" cy="418" r="2"/>
    <circle cx="1046" cy="418" r="2"/>
    <circle cx="290" cy="418" r="2"/>
    <circle cx="1082" cy="418" r="2"/>
    <circle cx="326" cy="418" r="2"/>
    <circle cx="1118" cy="418" r="2"/>
    <circle cx="362" cy="418" r="2"/>
    <circle cx="1154" cy="418" r="2"/>
    <circle cx="398" cy="418" r="2"/>
    <circle cx="1190" cy="418" r="2"/>
    <circle cx="722" cy="418" r="2"/>
    <circle cx="434" cy="418" r="2"/>
    <circle cx="1226" cy="418" r="2"/>
    <circle cx="758" cy="418" r="2"/>
    <circle cx="470" cy="418" r="2"/>
    <circle cx="1262" cy="418" r="2"/>
    <circle cx="794" cy="418" r="2"/>
    <circle cx="506" cy="418" r="2"/>
    <circle cx="1298" cy="418" r="2"/>
    <circle cx="830" cy="418" r="2"/>
    <circle cx="542" cy="418" r="2"/>
    <circle cx="1334" cy="418" r="2"/>
    <circle cx="866" cy="418" r="2"/>
    <circle cx="578" cy="418" r="2"/>
    <circle cx="902" cy="418" r="2"/>
    <circle cx="614" cy="418" r="2"/>
    <circle cx="938" cy="418" r="2"/>
    <circle cx="650" cy="418" r="2"/>
    <circle cx="974" cy="418" r="2"/>
    <circle cx="686" cy="418" r="2"/>
    <circle cx="1010" cy="418" r="2"/>
    <circle cx="2" cy="454" r="2"/>
    <circle cx="38" cy="454" r="2"/>
    <circle cx="74" cy="454" r="2"/>
    <circle cx="110" cy="454" r="2"/>
    <circle cx="146" cy="454" r="2"/>
    <circle cx="182" cy="454" r="2"/>
    <circle cx="218" cy="454" r="2"/>
    <circle cx="254" cy="454" r="2"/>
    <circle cx="1046" cy="454" r="2"/>
    <circle cx="290" cy="454" r="2"/>
    <circle cx="1082" cy="454" r="2"/>
    <circle cx="326" cy="454" r="2"/>
    <circle cx="1118" cy="454" r="2"/>
    <circle cx="362" cy="454" r="2"/>
    <circle cx="1154" cy="454" r="2"/>
    <circle cx="398" cy="454" r="2"/>
    <circle cx="1190" cy="454" r="2"/>
    <circle cx="722" cy="454" r="2"/>
    <circle cx="434" cy="454" r="2"/>
    <circle cx="1226" cy="454" r="2"/>
    <circle cx="758" cy="454" r="2"/>
    <circle cx="470" cy="454" r="2"/>
    <circle cx="1262" cy="454" r="2"/>
    <circle cx="794" cy="454" r="2"/>
    <circle cx="506" cy="454" r="2"/>
    <circle cx="1298" cy="454" r="2"/>
    <circle cx="830" cy="454" r="2"/>
    <circle cx="542" cy="454" r="2"/>
    <circle cx="1334" cy="454" r="2"/>
    <circle cx="866" cy="454" r="2"/>
    <circle cx="578" cy="454" r="2"/>
    <circle cx="902" cy="454" r="2"/>
    <circle cx="614" cy="454" r="2"/>
    <circle cx="938" cy="454" r="2"/>
    <circle cx="650" cy="454" r="2"/>
    <circle cx="974" cy="454" r="2"/>
    <circle cx="686" cy="454" r="2"/>
    <circle cx="1010" cy="454" r="2"/>
    <circle cx="2" cy="490" r="2"/>
    <circle cx="38" cy="490" r="2"/>
    <circle cx="74" cy="490" r="2"/>
    <circle cx="110" cy="490" r="2"/>
    <circle cx="146" cy="490" r="2"/>
    <circle cx="182" cy="490" r="2"/>
    <circle cx="218" cy="490" r="2"/>
    <circle cx="254" cy="490" r="2"/>
    <circle cx="1046" cy="490" r="2"/>
    <circle cx="290" cy="490" r="2"/>
    <circle cx="1082" cy="490" r="2"/>
    <circle cx="326" cy="490" r="2"/>
    <circle cx="1118" cy="490" r="2"/>
    <circle cx="362" cy="490" r="2"/>
    <circle cx="1154" cy="490" r="2"/>
    <circle cx="398" cy="490" r="2"/>
    <circle cx="1190" cy="490" r="2"/>
    <circle cx="722" cy="490" r="2"/>
    <circle cx="434" cy="490" r="2"/>
    <circle cx="1226" cy="490" r="2"/>
    <circle cx="758" cy="490" r="2"/>
    <circle cx="470" cy="490" r="2"/>
    <circle cx="1262" cy="490" r="2"/>
    <circle cx="794" cy="490" r="2"/>
    <circle cx="506" cy="490" r="2"/>
    <circle cx="1298" cy="490" r="2"/>
    <circle cx="830" cy="490" r="2"/>
    <circle cx="542" cy="490" r="2"/>
    <circle cx="1334" cy="490" r="2"/>
    <circle cx="866" cy="490" r="2"/>
    <circle cx="578" cy="490" r="2"/>
    <circle cx="902" cy="490" r="2"/>
    <circle cx="614" cy="490" r="2"/>
    <circle cx="938" cy="490" r="2"/>
    <circle cx="650" cy="490" r="2"/>
    <circle cx="974" cy="490" r="2"/>
    <circle cx="686" cy="490" r="2"/>
    <circle cx="1010" cy="490" r="2"/>
    <circle cx="2" cy="526" r="2"/>
    <circle cx="38" cy="526" r="2"/>
    <circle cx="74" cy="526" r="2"/>
    <circle cx="110" cy="526" r="2"/>
    <circle cx="146" cy="526" r="2"/>
    <circle cx="182" cy="526" r="2"/>
    <circle cx="218" cy="526" r="2"/>
    <circle cx="254" cy="526" r="2"/>
    <circle cx="1046" cy="526" r="2"/>
    <circle cx="290" cy="526" r="2"/>
    <circle cx="1082" cy="526" r="2"/>
    <circle cx="326" cy="526" r="2"/>
    <circle cx="1118" cy="526" r="2"/>
    <circle cx="362" cy="526" r="2"/>
    <circle cx="1154" cy="526" r="2"/>
    <circle cx="398" cy="526" r="2"/>
    <circle cx="1190" cy="526" r="2"/>
    <circle cx="722" cy="526" r="2"/>
    <circle cx="434" cy="526" r="2"/>
    <circle cx="1226" cy="526" r="2"/>
    <circle cx="758" cy="526" r="2"/>
    <circle cx="470" cy="526" r="2"/>
    <circle cx="1262" cy="526" r="2"/>
    <circle cx="794" cy="526" r="2"/>
    <circle cx="506" cy="526" r="2"/>
    <circle cx="1298" cy="526" r="2"/>
    <circle cx="830" cy="526" r="2"/>
    <circle cx="542" cy="526" r="2"/>
    <circle cx="1334" cy="526" r="2"/>
    <circle cx="866" cy="526" r="2"/>
    <circle cx="578" cy="526" r="2"/>
    <circle cx="902" cy="526" r="2"/>
    <circle cx="614" cy="526" r="2"/>
    <circle cx="938" cy="526" r="2"/>
    <circle cx="650" cy="526" r="2"/>
    <circle cx="974" cy="526" r="2"/>
    <circle cx="686" cy="526" r="2"/>
    <circle cx="1010" cy="526" r="2"/>
    <circle cx="2" cy="562" r="2"/>
    <circle cx="38" cy="562" r="2"/>
    <circle cx="74" cy="562" r="2"/>
    <circle cx="110" cy="562" r="2"/>
    <circle cx="146" cy="562" r="2"/>
    <circle cx="182" cy="562" r="2"/>
    <circle cx="218" cy="562" r="2"/>
    <circle cx="254" cy="562" r="2"/>
    <circle cx="1046" cy="562" r="2"/>
    <circle cx="290" cy="562" r="2"/>
    <circle cx="1082" cy="562" r="2"/>
    <circle cx="326" cy="562" r="2"/>
    <circle cx="1118" cy="562" r="2"/>
    <circle cx="362" cy="562" r="2"/>
    <circle cx="1154" cy="562" r="2"/>
    <circle cx="398" cy="562" r="2"/>
    <circle cx="1190" cy="562" r="2"/>
    <circle cx="722" cy="562" r="2"/>
    <circle cx="434" cy="562" r="2"/>
    <circle cx="1226" cy="562" r="2"/>
    <circle cx="758" cy="562" r="2"/>
    <circle cx="470" cy="562" r="2"/>
    <circle cx="1262" cy="562" r="2"/>
    <circle cx="794" cy="562" r="2"/>
    <circle cx="506" cy="562" r="2"/>
    <circle cx="1298" cy="562" r="2"/>
    <circle cx="830" cy="562" r="2"/>
    <circle cx="542" cy="562" r="2"/>
    <circle cx="1334" cy="562" r="2"/>
    <circle cx="866" cy="562" r="2"/>
    <circle cx="578" cy="562" r="2"/>
    <circle cx="902" cy="562" r="2"/>
    <circle cx="614" cy="562" r="2"/>
    <circle cx="938" cy="562" r="2"/>
    <circle cx="650" cy="562" r="2"/>
    <circle cx="974" cy="562" r="2"/>
    <circle cx="686" cy="562" r="2"/>
    <circle cx="1010" cy="562" r="2"/>
    <circle cx="2" cy="598" r="2"/>
    <circle cx="38" cy="598" r="2"/>
    <circle cx="74" cy="598" r="2"/>
    <circle cx="110" cy="598" r="2"/>
    <circle cx="146" cy="598" r="2"/>
    <circle cx="182" cy="598" r="2"/>
    <circle cx="218" cy="598" r="2"/>
    <circle cx="254" cy="598" r="2"/>
    <circle cx="1046" cy="598" r="2"/>
    <circle cx="290" cy="598" r="2"/>
    <circle cx="1082" cy="598" r="2"/>
    <circle cx="326" cy="598" r="2"/>
    <circle cx="1118" cy="598" r="2"/>
    <circle cx="362" cy="598" r="2"/>
    <circle cx="1154" cy="598" r="2"/>
    <circle cx="398" cy="598" r="2"/>
    <circle cx="1190" cy="598" r="2"/>
    <circle cx="722" cy="598" r="2"/>
    <circle cx="434" cy="598" r="2"/>
    <circle cx="1226" cy="598" r="2"/>
    <circle cx="758" cy="598" r="2"/>
    <circle cx="470" cy="598" r="2"/>
    <circle cx="1262" cy="598" r="2"/>
    <circle cx="794" cy="598" r="2"/>
    <circle cx="506" cy="598" r="2"/>
    <circle cx="1298" cy="598" r="2"/>
    <circle cx="830" cy="598" r="2"/>
    <circle cx="542" cy="598" r="2"/>
    <circle cx="1334" cy="598" r="2"/>
    <circle cx="866" cy="598" r="2"/>
    <circle cx="578" cy="598" r="2"/>
    <circle cx="902" cy="598" r="2"/>
    <circle cx="614" cy="598" r="2"/>
    <circle cx="938" cy="598" r="2"/>
    <circle cx="650" cy="598" r="2"/>
    <circle cx="974" cy="598" r="2"/>
    <circle cx="686" cy="598" r="2"/>
    <circle cx="1010" cy="598" r="2"/>
    <circle cx="2" cy="634" r="2"/>
    <circle cx="38" cy="634" r="2"/>
    <circle cx="74" cy="634" r="2"/>
    <circle cx="110" cy="634" r="2"/>
    <circle cx="146" cy="634" r="2"/>
    <circle cx="182" cy="634" r="2"/>
    <circle cx="218" cy="634" r="2"/>
    <circle cx="254" cy="634" r="2"/>
    <circle cx="1046" cy="634" r="2"/>
    <circle cx="290" cy="634" r="2"/>
    <circle cx="1082" cy="634" r="2"/>
    <circle cx="326" cy="634" r="2"/>
    <circle cx="1118" cy="634" r="2"/>
    <circle cx="362" cy="634" r="2"/>
    <circle cx="1154" cy="634" r="2"/>
    <circle cx="398" cy="634" r="2"/>
    <circle cx="1190" cy="634" r="2"/>
    <circle cx="722" cy="634" r="2"/>
    <circle cx="434" cy="634" r="2"/>
    <circle cx="1226" cy="634" r="2"/>
    <circle cx="758" cy="634" r="2"/>
    <circle cx="470" cy="634" r="2"/>
    <circle cx="1262" cy="634" r="2"/>
    <circle cx="794" cy="634" r="2"/>
    <circle cx="506" cy="634" r="2"/>
    <circle cx="1298" cy="634" r="2"/>
    <circle cx="830" cy="634" r="2"/>
    <circle cx="542" cy="634" r="2"/>
    <circle cx="1334" cy="634" r="2"/>
    <circle cx="866" cy="634" r="2"/>
    <circle cx="578" cy="634" r="2"/>
    <circle cx="902" cy="634" r="2"/>
    <circle cx="614" cy="634" r="2"/>
    <circle cx="938" cy="634" r="2"/>
    <circle cx="650" cy="634" r="2"/>
    <circle cx="974" cy="634" r="2"/>
    <circle cx="686" cy="634" r="2"/>
    <circle cx="1010" cy="634" r="2"/>
    <circle cx="2" cy="670" r="2"/>
    <circle cx="38" cy="670" r="2"/>
    <circle cx="74" cy="670" r="2"/>
    <circle cx="110" cy="670" r="2"/>
    <circle cx="146" cy="670" r="2"/>
    <circle cx="182" cy="670" r="2"/>
    <circle cx="218" cy="670" r="2"/>
    <circle cx="254" cy="670" r="2"/>
    <circle cx="1046" cy="670" r="2"/>
    <circle cx="290" cy="670" r="2"/>
    <circle cx="1082" cy="670" r="2"/>
    <circle cx="326" cy="670" r="2"/>
    <circle cx="1118" cy="670" r="2"/>
    <circle cx="362" cy="670" r="2"/>
    <circle cx="1154" cy="670" r="2"/>
    <circle cx="398" cy="670" r="2"/>
    <circle cx="1190" cy="670" r="2"/>
    <circle cx="722" cy="670" r="2"/>
    <circle cx="434" cy="670" r="2"/>
    <circle cx="1226" cy="670" r="2"/>
    <circle cx="758" cy="670" r="2"/>
    <circle cx="470" cy="670" r="2"/>
    <circle cx="1262" cy="670" r="2"/>
    <circle cx="794" cy="670" r="2"/>
    <circle cx="506" cy="670" r="2"/>
    <circle cx="1298" cy="670" r="2"/>
    <circle cx="830" cy="670" r="2"/>
    <circle cx="542" cy="670" r="2"/>
    <circle cx="1334" cy="670" r="2"/>
    <circle cx="866" cy="670" r="2"/>
    <circle cx="578" cy="670" r="2"/>
    <circle cx="902" cy="670" r="2"/>
    <circle cx="614" cy="670" r="2"/>
    <circle cx="938" cy="670" r="2"/>
    <circle cx="650" cy="670" r="2"/>
    <circle cx="974" cy="670" r="2"/>
    <circle cx="686" cy="670" r="2"/>
    <circle cx="1010" cy="670" r="2"/>
    <circle cx="2" cy="706" r="2"/>
    <circle cx="38" cy="706" r="2"/>
    <circle cx="74" cy="706" r="2"/>
    <circle cx="110" cy="706" r="2"/>
    <circle cx="146" cy="706" r="2"/>
    <circle cx="182" cy="706" r="2"/>
    <circle cx="218" cy="706" r="2"/>
    <circle cx="254" cy="706" r="2"/>
    <circle cx="1046" cy="706" r="2"/>
    <circle cx="290" cy="706" r="2"/>
    <circle cx="1082" cy="706" r="2"/>
    <circle cx="326" cy="706" r="2"/>
    <circle cx="1118" cy="706" r="2"/>
    <circle cx="362" cy="706" r="2"/>
    <circle cx="1154" cy="706" r="2"/>
    <circle cx="398" cy="706" r="2"/>
    <circle cx="1190" cy="706" r="2"/>
    <circle cx="722" cy="706" r="2"/>
    <circle cx="434" cy="706" r="2"/>
    <circle cx="1226" cy="706" r="2"/>
    <circle cx="758" cy="706" r="2"/>
    <circle cx="470" cy="706" r="2"/>
    <circle cx="1262" cy="706" r="2"/>
    <circle cx="794" cy="706" r="2"/>
    <circle cx="506" cy="706" r="2"/>
    <circle cx="1298" cy="706" r="2"/>
    <circle cx="830" cy="706" r="2"/>
    <circle cx="542" cy="706" r="2"/>
    <circle cx="1334" cy="706" r="2"/>
    <circle cx="866" cy="706" r="2"/>
    <circle cx="578" cy="706" r="2"/>
    <circle cx="902" cy="706" r="2"/>
    <circle cx="614" cy="706" r="2"/>
    <circle cx="938" cy="706" r="2"/>
    <circle cx="650" cy="706" r="2"/>
    <circle cx="974" cy="706" r="2"/>
    <circle cx="686" cy="706" r="2"/>
    <circle cx="1010" cy="706" r="2"/>
  </g>
</svg>