<svg id="Capa_1" enable-background="new 0 0 512 512" height="512" viewBox="0 0 512 512" width="512" xmlns="http://www.w3.org/2000/svg"><g><path d="m246.786 12.486c30.655 0 57.282 17.567 70.342 43.165 1.901 3.726 5.804 5.991 9.979 5.745 39.845-2.348 74.068 29.427 74.264 69.776.189 38.817-32.371 70.575-71.189 70.575h-161.033c-34.031 0-62.235-27.272-62.367-61.303-.121-31.26 23.403-57.93 54.753-61.403 4.316-.478 7.84-3.613 8.95-7.811 8.934-33.775 39.755-58.744 76.301-58.744z" fill="#b1e4f9"/><g><path d="m327.107 61.395c-4.175.246-8.078-2.019-9.979-5.745-13.06-25.597-39.686-43.165-70.342-43.165-25.328 0-47.9 11.999-62.348 30.606 12.143-7.632 26.493-12.063 41.865-12.063 30.655 0 57.281 17.567 70.342 43.165 1.901 3.726 5.804 5.991 9.979 5.745 39.845-2.348 74.068 29.427 74.264 69.776.076 15.585-5.136 30.025-13.903 41.736 20.56-12.421 34.51-34.833 34.387-60.279-.198-40.348-34.421-72.123-74.265-69.776z" fill="#90d8f9"/></g><path d="m181.64 155.072-36.713-35.129c-3.323-3.18-7.745-4.954-12.344-4.954h-114.728c-9.861 0-17.855 7.994-17.855 17.855v284.507c0 9.861 7.994 17.855 17.855 17.855h412.417c9.861 0 17.855-7.994 17.855-17.855v-239.469c0-9.861-7.994-17.855-17.855-17.855h-236.287c-4.6 0-9.022-1.775-12.345-4.955z" fill="#ffe07d"/><g fill="#ffd064"><path d="m151.25 155.072c3.323 3.18 7.745 4.954 12.344 4.954h30.39c-4.599 0-9.021-1.775-12.344-4.954l-36.713-35.129c-3.323-3.18-7.745-4.954-12.344-4.954h-30.39c4.599 0 9.021 1.775 12.344 4.954z"/><path d="m430.272 160.027h-30.39c9.861 0 17.855 7.994 17.855 17.855v239.468c0 9.861-7.994 17.855-17.855 17.855h30.39c9.861 0 17.855-7.994 17.855-17.855v-239.468c0-9.861-7.994-17.855-17.855-17.855z"/></g><path d="m480.811 371.285h-237.086c-2.52 0-4.907-1.131-6.502-3.081l-22.787-27.848c-2.533-3.095-2.533-7.546 0-10.641l22.787-27.848c1.596-1.95 3.983-3.081 6.502-3.081h237.086c2.52 0 4.907 1.131 6.502 3.081l22.787 27.848c2.533 3.095 2.533 7.546 0 10.641l-22.787 27.848c-1.595 1.95-3.982 3.081-6.502 3.081z" fill="#365e7d"/><path d="m510.101 329.715-22.787-27.848c-1.596-1.95-3.983-3.081-6.502-3.081h-24.158c2.52 0 4.907 1.131 6.502 3.081l22.787 27.848c2.532 3.095 2.532 7.546 0 10.641l-22.787 27.848c-1.596 1.95-3.983 3.081-6.502 3.081h24.158c2.52 0 4.907-1.131 6.502-3.081l22.787-27.848c2.532-3.095 2.532-7.546 0-10.641z" fill="#2b4d66"/><path d="m480.811 471.649h-237.086c-2.52 0-4.907-1.131-6.502-3.081l-22.787-27.848c-2.533-3.095-2.533-7.546 0-10.641l22.787-27.848c1.596-1.95 3.983-3.081 6.502-3.081h237.086c2.52 0 4.907 1.131 6.502 3.081l22.787 27.848c2.533 3.095 2.533 7.546 0 10.641l-22.787 27.848c-1.595 1.95-3.982 3.081-6.502 3.081z" fill="#365e7d"/><path d="m510.101 430.079-22.787-27.848c-1.596-1.95-3.983-3.081-6.502-3.081h-24.158c2.52 0 4.907 1.131 6.502 3.081l22.787 27.848c2.532 3.095 2.532 7.546 0 10.641l-22.787 27.848c-1.596 1.95-3.983 3.081-6.502 3.081h24.158c2.52 0 4.907-1.131 6.502-3.081l22.787-27.848c2.532-3.095 2.532-7.546 0-10.641z" fill="#2b4d66"/><path d="m254.076 371.285h216.383v27.865h-216.383z" fill="#d0e2e7"/><path d="m462.22 499.514h-199.904c-4.55 0-8.239-3.689-8.239-8.239v-19.625h216.383v19.625c0 4.55-3.689 8.239-8.24 8.239z" fill="#d0e2e7"/><g><g><path d="m273.859 342.762h-7.044c-4.268 0-7.726-3.459-7.726-7.726 0-4.268 3.459-7.726 7.726-7.726h7.044c4.268 0 7.726 3.459 7.726 7.726s-3.459 7.726-7.726 7.726z" fill="#95d6a4"/></g><g><path d="m306.5 342.762h-7.044c-4.268 0-7.726-3.459-7.726-7.726 0-4.268 3.459-7.726 7.726-7.726h7.044c4.268 0 7.726 3.459 7.726 7.726s-3.459 7.726-7.726 7.726z" fill="#95d6a4"/></g><g><path d="m339.14 342.762h-7.044c-4.268 0-7.726-3.459-7.726-7.726 0-4.268 3.459-7.726 7.726-7.726h7.044c4.268 0 7.726 3.459 7.726 7.726s-3.459 7.726-7.726 7.726z" fill="#95d6a4"/></g><g><path d="m402.004 379.011c-4.268 0-7.726-3.459-7.726-7.726v-16.399c0-4.268 3.459-7.726 7.726-7.726s7.726 3.459 7.726 7.726v16.399c0 4.267-3.459 7.726-7.726 7.726z" fill="#95d6a4"/></g><g><path d="m429.863 379.011c-4.268 0-7.726-3.459-7.726-7.726v-16.399c0-4.268 3.459-7.726 7.726-7.726s7.726 3.459 7.726 7.726v16.399c0 4.267-3.459 7.726-7.726 7.726z" fill="#95d6a4"/></g><g><path d="m457.722 379.011c-4.268 0-7.726-3.459-7.726-7.726v-16.399c0-4.268 3.459-7.726 7.726-7.726s7.726 3.459 7.726 7.726v16.399c0 4.267-3.458 7.726-7.726 7.726z" fill="#95d6a4"/></g></g><g><g><path d="m273.859 443.126h-7.044c-4.268 0-7.726-3.459-7.726-7.726s3.459-7.726 7.726-7.726h7.044c4.268 0 7.726 3.459 7.726 7.726s-3.459 7.726-7.726 7.726z" fill="#95d6a4"/></g><g><path d="m306.5 443.126h-7.044c-4.268 0-7.726-3.459-7.726-7.726s3.459-7.726 7.726-7.726h7.044c4.268 0 7.726 3.459 7.726 7.726s-3.459 7.726-7.726 7.726z" fill="#95d6a4"/></g><g><path d="m339.14 443.126h-7.044c-4.268 0-7.726-3.459-7.726-7.726s3.459-7.726 7.726-7.726h7.044c4.268 0 7.726 3.459 7.726 7.726s-3.459 7.726-7.726 7.726z" fill="#95d6a4"/></g><g><path d="m402.004 479.375c-4.268 0-7.726-3.459-7.726-7.726v-16.399c0-4.268 3.459-7.726 7.726-7.726s7.726 3.459 7.726 7.726v16.399c0 4.268-3.459 7.726-7.726 7.726z" fill="#95d6a4"/></g><g><path d="m429.863 479.375c-4.268 0-7.726-3.459-7.726-7.726v-16.399c0-4.268 3.459-7.726 7.726-7.726s7.726 3.459 7.726 7.726v16.399c0 4.268-3.459 7.726-7.726 7.726z" fill="#95d6a4"/></g><g><path d="m457.722 479.375c-4.268 0-7.726-3.459-7.726-7.726v-16.399c0-4.268 3.459-7.726 7.726-7.726s7.726 3.459 7.726 7.726v16.399c0 4.268-3.458 7.726-7.726 7.726z" fill="#95d6a4"/></g></g><g><path d="m270.41 253.425h-92.693c-4.268 0-7.726-3.459-7.726-7.726s3.459-7.726 7.726-7.726h92.693c4.268 0 7.726 3.459 7.726 7.726s-3.458 7.726-7.726 7.726z" fill="#ffd064"/></g></g></svg>