<svg xmlns="http://www.w3.org/2000/svg" width="100" height="66" viewBox="0 0 100 66">
  <g id="Group_8" data-name="Group 8" transform="translate(-857 -324)">
    <path id="Path_866" data-name="Path 866" d="M542,272.792c13.068-.22,8.719-24.378,19.55-24.292" transform="translate(348.39 86.041)" fill="none" stroke="#eaeaea" stroke-width="4"/>
    <path id="Path_867" data-name="Path 867" d="M542,248.5c23.117.209,15.423,23.172,34.584,23.09" transform="translate(349.678 110.333)" fill="none" stroke="#eaeaea" stroke-width="4"/>
    <rect id="Rectangle_69" data-name="Rectangle 69" width="37" height="21" rx="10" transform="translate(857 350)" fill="#ff898d"/>
    <rect id="Rectangle_70" data-name="Rectangle 70" width="37" height="21" rx="10" transform="translate(920 369)" fill="#fcd56e"/>
    <rect id="Rectangle_71" data-name="Rectangle 71" width="37" height="22" rx="10" transform="translate(908 325)" fill="#5de69c"/>
    <rect id="Rectangle_72" data-name="Rectangle 72" width="37" height="21" rx="10" transform="translate(857 348)" fill="#ff9da0"/>
    <rect id="Rectangle_73" data-name="Rectangle 73" width="37" height="21" rx="10" transform="translate(920 368)" fill="#ffde86"/>
    <rect id="Rectangle_74" data-name="Rectangle 74" width="37" height="21" rx="10" transform="translate(908 324)" fill="#83ffbc"/>
    <rect id="Rectangle_75" data-name="Rectangle 75" width="18" height="2" rx="1" transform="translate(862 353)" fill="#ff898d"/>
    <rect id="Rectangle_76" data-name="Rectangle 76" width="17" height="2" rx="1" transform="translate(915 328)" fill="#5de69c"/>
    <rect id="Rectangle_77" data-name="Rectangle 77" width="18" height="2" rx="1" transform="translate(925 374)" fill="#fcd56e"/>
  </g>
</svg>
