<svg xmlns="http://www.w3.org/2000/svg" width="120" height="100" viewBox="0 0 120 100">
  <g id="Group_9" data-name="Group 9" transform="translate(-857 -324)">
    <g id="Group_8" data-name="Group 8" transform="translate(857 324)">
      <path id="Path_866" data-name="Path 866" d="M542,281.541c17.774-.3,11.859-33.158,26.591-33.04" transform="translate(-496.585 -234.162)" fill="none" stroke="#c1c1c1" stroke-width="4"/>
      <path id="Path_867" data-name="Path 867" d="M542,248.5c14.594.314,9.737,34.784,21.833,34.661" transform="translate(-494.833 -201.122)" fill="none" stroke="#c1c1c1" stroke-width="4"/>
      <rect id="Rectangle_69" data-name="Rectangle 69" width="50" height="39" rx="10" transform="translate(0 29)" fill="#ff898d"/>
      <rect id="Rectangle_71" data-name="Rectangle 71" width="51" height="41" rx="10" transform="translate(69 1)" fill="#a2a2a2"/>
      <rect id="Rectangle_72" data-name="Rectangle 72" width="50" height="38" rx="10" transform="translate(0 27)" fill="#ff9da0"/>
      <rect id="Rectangle_74" data-name="Rectangle 74" width="51" height="40" rx="10" transform="translate(69)" fill="#c7c7c7"/>
      <rect id="Rectangle_75" data-name="Rectangle 75" width="24" height="3" rx="1.5" transform="translate(7 35)" fill="#ff898d"/>
      <rect id="Rectangle_76" data-name="Rectangle 76" width="23" height="3" rx="1.5" transform="translate(79 7)" fill="#a2a2a2"/>
      <g id="Group_10" data-name="Group 10">
        <rect id="Rectangle_70" data-name="Rectangle 70" width="54" height="42" rx="10" transform="translate(66 58)" fill="#6f91e0"/>
        <rect id="Rectangle_73" data-name="Rectangle 73" width="54" height="41" rx="10" transform="translate(66 57)" fill="#86abff"/>
        <rect id="Rectangle_77" data-name="Rectangle 77" width="25" height="3" rx="1.5" transform="translate(72 69)" fill="#6f91e0"/>
      </g>
    </g>
  </g>
</svg>
