<svg xmlns="http://www.w3.org/2000/svg" width="136" height="90" viewBox="0 0 136 90">
  <g id="Group_9" data-name="Group 9" transform="translate(-857 -324)">
    <g id="Group_8" data-name="Group 8" transform="translate(857 324)">
      <path id="Path_866" data-name="Path 866" d="M542,281.541c17.774-.3,11.859-33.158,26.591-33.04" transform="translate(-496.585 -234.162)" fill="none" stroke="#eaeaea" stroke-width="4"/>
      <path id="Path_867" data-name="Path 867" d="M542,248.5c31.442.285,20.978,31.517,47.039,31.405" transform="translate(-494.833 -201.122)" fill="none" stroke="#eaeaea" stroke-width="4"/>
      <rect id="Rectangle_69" data-name="Rectangle 69" width="50" height="29" rx="10" transform="translate(0 35)" fill="#ff898d"/>
      <rect id="Rectangle_70" data-name="Rectangle 70" width="50" height="29" rx="10" transform="translate(86 61)" fill="#fcd56e"/>
      <rect id="Rectangle_71" data-name="Rectangle 71" width="51" height="30" rx="10" transform="translate(69 1)" fill="#5de69c"/>
      <rect id="Rectangle_72" data-name="Rectangle 72" width="50" height="28" rx="10" transform="translate(0 33)" fill="#ff9da0"/>
      <rect id="Rectangle_73" data-name="Rectangle 73" width="50" height="28" rx="10" transform="translate(86 60)" fill="#ffde86"/>
      <rect id="Rectangle_74" data-name="Rectangle 74" width="51" height="29" rx="10" transform="translate(69)" fill="#83ffbc"/>
      <rect id="Rectangle_75" data-name="Rectangle 75" width="24" height="3" rx="1.5" transform="translate(7 39)" fill="#ff898d"/>
      <rect id="Rectangle_76" data-name="Rectangle 76" width="23" height="3" rx="1.5" transform="translate(79 5)" fill="#5de69c"/>
      <rect id="Rectangle_77" data-name="Rectangle 77" width="25" height="3" rx="1.5" transform="translate(92 68)" fill="#fcd56e"/>
    </g>
  </g>
</svg>
