<svg id="icons" enable-background="new 0 0 64 64" height="512" viewBox="0 0 64 64" width="512" xmlns="http://www.w3.org/2000/svg"><path d="m47.5 62.25c0 .55-.45 1-1 1h-41c-.55 0-1-.45-1-1v-54c0-.55.45-1 1-1h41c.55 0 1 .45 1 1z" fill="#965353"/><path d="m39.5 4.25v1.5c0 .83-.67 1.5-1.5 1.5s-1.5-.67-1.5-1.5v-1.5h-5v1.5c0 .83-.67 1.5-1.5 1.5s-1.5-.67-1.5-1.5v-1.5h-5v1.5c0 .83-.67 1.5-1.5 1.5s-1.5-.67-1.5-1.5v-1.5h-5v1.5c0 .83-.67 1.5-1.5 1.5s-1.5-.67-1.5-1.5v-1.5h-5v3 49.99h37v-49.99-3z" fill="#e6e9ed"/><g fill="#aab2bd"><path d="m26.483 21.248c-.553 0-1-.447-1-1v-4c0-.553.447-1 1-1s1 .447 1 1v4c0 .553-.447 1-1 1z"/><path d="m26.483 38.265c-.553 0-1-.447-1-1v-3.009c0-.553.447-1 1-1s1 .447 1 1v3.009c0 .552-.447 1-1 1z"/><path d="m26.491 31.242c-.553 0-1-.447-1-1v-6.004c0-.553.447-1 1-1s1 .447 1 1v6.004c0 .553-.447 1-1 1z"/><path d="m26.483 49.253c-.553 0-1-.447-1-1v-2.989c0-.553.447-1 1-1s1 .447 1 1v2.989c0 .553-.447 1-1 1z"/><path d="m19.483 42.264h-4.991c-.553 0-1-.447-1-1s.447-1 1-1h4.991c.553 0 1 .447 1 1s-.447 1-1 1z"/><path d="m14.492 42.264c-.553 0-1-.447-1-1v-14.013c0-.553.447-1 1-1s1 .447 1 1v14.013c0 .552-.447 1-1 1z"/><path d="m26.491 28.251h-11.999c-.553 0-1-.447-1-1s.447-1 1-1h11.999c.553 0 1 .447 1 1s-.447 1-1 1z"/></g><path d="m44.5 60.24v.01h-37v-.01-3h37z" fill="#ccd1d9"/><path d="m38 .75c-1.103 0-2 .897-2 2v3c0 1.103.897 2 2 2s2-.897 2-2v-3c0-1.103-.897-2-2-2z" fill="#656d78"/><path d="m30 .75c-1.103 0-2 .897-2 2v3c0 1.103.897 2 2 2s2-.897 2-2v-3c0-1.103-.897-2-2-2z" fill="#656d78"/><path d="m14 .75c-1.103 0-2 .897-2 2v3c0 1.103.897 2 2 2s2-.897 2-2v-3c0-1.103-.897-2-2-2z" fill="#656d78"/><path d="m22 .75c-1.103 0-2 .897-2 2v3c0 1.103.897 2 2 2s2-.897 2-2v-3c0-1.103-.897-2-2-2z" fill="#656d78"/><path d="m32.483 11.248h-12c-1.654 0-3 1.346-3 3s1.346 3 3 3h12c1.654 0 3-1.346 3-3s-1.345-3-3-3z" fill="#ccd1d9"/><path d="m33.491 29.242h-14c-.553 0-1 .447-1 1v3.999c0 .553.447 1 1 1h14c.553 0 1-.447 1-1v-3.999c0-.553-.447-1-1-1z" fill="#ccd1d9"/><path d="m33.491 19.239h-14c-.553 0-1 .447-1 1v3.999c0 .553.447 1 1 1h14c.553 0 1-.447 1-1v-3.999c0-.552-.447-1-1-1z" fill="#ccd1d9"/><path d="m56.5 18.244h-1c-.553 0-1 .447-1 1s.447 1 1 1h1c.552 0 1 .448 1 1v12c0 .553.447 1 1 1s1-.447 1-1v-12c0-1.654-1.346-3-3-3z" fill="#aab2bd"/><path d="m56.5 18.244c0-1.654-1.346-3-3-3s-3 1.346-3 3v34h6z" fill="#656d78"/><path d="m53.5 57.244c-.553 0-1-.447-1-1v-1c0-.553.447-1 1-1s1 .447 1 1v1c0 .553-.447 1-1 1z" fill="#5d9cec"/><path d="m50.5 27.244h6v2h-6z" fill="#545c66"/><path d="m50.5 52.244c0 .031.015.058.018.088.006.067.02.132.04.197.02.066.044.127.076.187.015.026.017.057.034.083l1.996 2.994c.001.001.001.002.002.003l.002.003c.068.103.155.182.25.249.011.009.016.021.027.028.013.008.026.011.039.019.056.033.114.06.176.082.025.01.05.021.076.029.083.022.168.036.253.037.004 0 .007.001.01.001h.001.001c.003 0 .006-.001.01-.001.085-.001.17-.015.253-.037.026-.008.051-.02.076-.029.062-.021.12-.049.176-.082.013-.008.026-.011.039-.019.012-.008.017-.02.027-.028.095-.067.182-.146.25-.249l.002-.003c.001-.001.001-.002.002-.003l1.996-2.994c.018-.026.02-.056.034-.083.032-.06.057-.12.076-.187.021-.066.034-.13.04-.197.003-.03.018-.057.018-.088z" fill="#e6e9ed"/><path d="m32.483 47.253h-12c-1.654 0-3 1.346-3 3s1.346 3 3 3h12c1.654 0 3-1.346 3-3s-1.345-3-3-3z" fill="#ccd1d9"/><path d="m33.979 40.396-7-3.999c-.307-.176-.686-.176-.992 0l-7 3.999c-.312.178-.504.509-.504.868 0 .358.192.69.504.868l7 4c.153.088.325.132.496.132s.343-.044.496-.132l7-4c.312-.178.504-.51.504-.868 0-.36-.192-.691-.504-.868z" fill="#656d78"/></svg>