<svg id="icons" enable-background="new 0 0 64 64" height="512" viewBox="0 0 64 64" width="512" xmlns="http://www.w3.org/2000/svg"><path d="m52.192 46.025-2.961-2.96c.539-.38 1.061-.81 1.54-1.29.48-.479.909-1 1.28-1.55l2.97 2.97z" fill="#ccd1d9"/><path d="m62.122 48.876c1.17 1.18 1.17 3.08 0 4.25-1.171 1.171-3.07 1.171-4.24.001l-6.39-6.392.7-.71 2.829-2.83.711-.71z" fill="#656d78"/><path d="m48.652 39.655c3.13-3.13 3.13-8.19 0-11.319-3.12-3.12-8.191-3.12-11.311 0-3.121 3.13-3.12 8.189 0 11.319 3.121 3.12 8.191 3.12 11.311 0zm-13.43-13.439c3.449-3.45 8.629-4.13 12.761-2.021 1 .5 1.949 1.181 2.788 2.021 3.821 3.819 4.251 9.729 1.281 14.01-.371.55-.8 1.07-1.28 1.55-.479.48-1.001.91-1.54 1.29-.4.271-.811.521-1.23.73-4.129 2.12-9.319 1.439-12.779-2.021-4.301-4.299-4.301-11.259-.001-15.559z" fill="#e6e9ed"/><path d="m45.002 34.996v-1-1c0-1.101-.901-2-2-2-1.11 0-2 .899-2 2v1 1c-.001 1.109.889 2.01 1.999 2.01 1.1 0 2.001-.901 2.001-2.01zm3.65-6.66c3.13 3.129 3.13 8.189 0 11.319-3.12 3.12-8.19 3.12-11.311 0-3.12-3.13-3.121-8.189 0-11.319 3.12-3.12 8.191-3.12 11.311 0z" fill="#5d9cec"/><path d="m4.001 13.997v36.01l-2.001-.001-.999-.999v-35.011z" fill="#545c66"/><path d="m48.002 13.996h-44.001-3v-2c0-1.101.891-2 2.001-2h43c1.11 0 2 .899 2 2z" fill="#aab2bd"/><path d="m48.001 43.796.001 5.212-1.002.998-42.999.001v-36.01h44.001v10.149l-.02.05c-4.132-2.109-9.312-1.429-12.761 2.021-4.3 4.3-4.3 11.26 0 15.56 3.461 3.458 8.651 4.139 12.78 2.019z" fill="#656d78"/><g fill="#da4453"><path d="m46.999 29.498c-.553 0-1 .448-1 1v1h-1c-.552 0-.999.449-.999 1-.001.553.447 1 .999 1h1c1.104 0 2.001-.896 2.001-1.999v-1c0-.552-.447-1.001-1.001-1.001z"/><path d="m45.999 34.501h-1c-.552 0-.999.446-1 .999.001.553.448 1 1 1h1l.001.001v1c0 .553.447 1 1 1s1-.447 1-1v-1c0-1.104-.897-2.001-2.001-2z"/><path d="m41.001 31.499h-1v-1.001c0-.551-.447-1-1-1s-1 .449-1.001 1l.001 1.001c-.001 1.103.896 1.999 2 1.998l1 .001c.553 0 1-.447 1-1 0-.552-.447-1-1-.999z"/><path d="m41.001 34.5h-1c-1.104.001-2 .897-2 2.001v1c0 .553.447 1 1 1s1-.447 1-1v-1c0-.001 0-.001 0-.001h1c.553 0 1-.447 1-1s-.448-1-1-1z"/></g><path d="m4.03 12.999c-.553 0-1.005-.448-1.005-1s.442-1 .994-1l.011.001c.552 0 1 .448.999 1 .001.551-.447.999-.999.999z" fill="#ccd1d9"/><path d="m7.03 12.999c-.553 0-1.005-.448-1.005-1s.442-1 .994-1h.011c.551 0 1 .448 1 1s-.448 1-1 1z" fill="#ccd1d9"/><path d="m10.03 12.999c-.553 0-1.005-.447-1.005-1s.441-1 .993-1h.012c.551 0 1 .448 1 1s-.449 1-1 1z" fill="#ccd1d9"/><path d="m24.999 18.999h-16.999c-.553 0-1.001-.448-1-1 0-.553.447-1 1-1l17-.001c.553 0 .999.449 1 1 0 .553-.447 1.001-1.001 1.001z" fill="#5d9cec"/><path d="m21 22.999h-11c-.553 0-1.001-.448-1-1 0-.553.447-1 1-1h11c.553 0 1 .448 1 1-.001.552-.447 1-1 1z" fill="#a0d468"/><path d="m19.999 43.016-9.999-.001c-.553 0-1-.447-1-1s.447-1 1-1h10c.553 0 1 .447 1 1-.001.552-.447 1-1.001 1.001z" fill="#a0d468"/><path d="m26.999 22.999h-2c-.552 0-.999-.447-.999-1s.447-1 .999-1h2c.554 0 1 .448 1 1 .001.551-.447 1-1 1z" fill="#a0d468"/><path d="m14 47.003h-6c-.553 0-1-.447-1-1s.447-1 1-1h5.999c.554 0 1.001.447 1 1.001.001.552-.447.999-.999.999z" fill="#5d9cec"/><path d="m15.999 26.999h-3.999c-.553 0-1-.448-1-1s.447-1 .999-1h4c.554 0 1.001.448 1 1 .001.551-.446.999-1 1z" fill="#ed5565"/><path d="m30 26.999-10-.001c-.553.001-1-.447-1-1-.001-.552.446-1 1-1h9.999c.554 0 1.001.448 1.001 1-.001.553-.448 1.001-1 1.001z" fill="#ed5565"/><path d="m29 30.998-17.001.001c-.553 0-.999-.448-1-1 0-.553.447-1 1.001-1.001h17c.552 0 1 .448 1 1 0 .553-.448 1-1 1z" fill="#ffce54"/><path d="m23 34.999h-11c-.553 0-1-.447-1-1s.447-1 .999-1h11.001c.553.001 1 .447 1 1s-.447 1-1 1z" fill="#ffce54"/><path d="m27.999 39.001h-9.999c-.553.001-1.001-.447-1-1 0-.553.446-1 1-1h10c.553 0 1 .447 1 1 0 .554-.447 1-1.001 1z" fill="#ed5565"/><path d="m14 39.002-2-.001c-.553 0-1-.447-1-1 0-.552.447-1 .999-1h2c.554 0 1.001.447 1 1 .001.553-.447 1.001-.999 1.001z" fill="#ed5565"/><path d="m52.197 47.022c-.257.001-.512-.098-.708-.293-.391-.391-.391-1.023 0-1.414l2.827-2.828c.391-.39 1.024-.39 1.414 0 .391.392.39 1.024 0 1.414l-2.826 2.828c-.195.196-.452.293-.707.293z" fill="#656d78"/><path d="m43 29.998c-1.655 0-3.001 1.347-3.001 3.001l.001 2c-.001 1.654 1.346 3.001 3 3.002 1.654 0 3-1.348 2.999-3.002l.001-2c0-1.654-1.346-3.001-3-3.001z" fill="#ed5565"/><path d="m40 32.5h5.999v.999h-5.999z" fill="#da4453"/><path d="m42.5 37.95c.163.027.329.051.5.051s.336-.022.499-.051v-5.451l-.998.001z" fill="#da4453"/><circle cx="2.001" cy="49.007" fill="#545c66" r="1"/><circle cx="47" cy="49.007" fill="#656d78" r="1"/></svg>