<svg id="icons" enable-background="new 0 0 64 64" height="512" viewBox="0 0 64 64" width="512" xmlns="http://www.w3.org/2000/svg"><path d="m48.001 38.5c-.553 0-1-.447-1-1v-13.004c0-.553.447-1 1-1s1 .447 1 1v13.004c0 .553-.447 1-1 1z" fill="#ccd1d9"/><path d="m6 14.501h35v12.999h-35z" fill="#656d78"/><path d="m6 41.5h35v12.999h-35z" fill="#656d78"/><path d="m60 27.09v21.421c0 1.11-.89 2-2 2-1.1 0-2-.89-2-2v-21.421c.61.26 1.29.41 2 .41s1.39-.15 2-.41z" fill="#ccd1d9"/><path d="m50.468 22.314-1.5-4c-.073-.195-.26-.324-.468-.324h-1c-.208 0-.395.129-.468.324l-1.5 4c-.069.184-.024.391.114.529l2 2c.098.098.226.146.354.146s.256-.049.354-.146l2-2c.138-.138.183-.345.114-.529z" fill="#e6e9ed"/><path d="m1 9.501v14 12.999 12.999l5 5v-12.999-14-12.999z" fill="#545c66"/><path d="m41 14.501h-35l-5-5h35z" fill="#434a54"/><path d="m12.01 46c1.101 0 2 .89 2 2 0 1.1-.899 2-2 2-1.109 0-2-.9-2-2 0-1.11.89-2 2-2z" fill="#a0d468"/><path d="m12.01 18.991c1.101 0 2 .899 2 2 0 1.109-.899 2-2 2-1.109 0-2-.891-2-2 0-1.1.89-2 2-2z" fill="#a0d468"/><path d="m12.01 32.5c1.101 0 2 .89 2 2 0 1.1-.899 2-2 2-1.109 0-2-.9-2-2 0-1.11.89-2 2-2z" fill="#a0d468"/><path d="m41 27.5v14h-35v-14zm-26.99 7c0-1.11-.899-2-2-2-1.109 0-2 .89-2 2 0 1.1.891 2 2 2 1.1 0 2-.9 2-2z" fill="#656d78"/><g fill="#545c66"><path d="m28.005 22.997c-.15 0-.303-.034-.446-.105-.494-.247-.694-.848-.447-1.342l1-2c.248-.494.848-.693 1.342-.447.494.247.694.848.447 1.342l-1 2c-.176.35-.529.552-.896.552z"/><path d="m32.005 22.997c-.15 0-.303-.034-.446-.105-.494-.247-.694-.848-.447-1.342l1-2c.248-.494.849-.693 1.342-.447.494.247.694.848.447 1.342l-1 2c-.176.35-.529.552-.896.552z"/><path d="m36.005 22.997c-.15 0-.303-.034-.446-.105-.494-.247-.694-.848-.447-1.342l1-2c.248-.494.848-.693 1.342-.447.494.247.694.848.447 1.342l-1 2c-.176.35-.529.552-.896.552z"/><path d="m28.005 36.498c-.15 0-.303-.034-.446-.105-.494-.247-.694-.848-.447-1.342l1-2c.248-.494.848-.692 1.342-.447.494.247.694.848.447 1.342l-1 2c-.176.35-.529.552-.896.552z"/><path d="m32.005 36.498c-.15 0-.303-.034-.446-.105-.494-.247-.694-.848-.447-1.342l1-2c.248-.494.849-.692 1.342-.447.494.247.694.848.447 1.342l-1 2c-.176.35-.529.552-.896.552z"/><path d="m36.005 36.498c-.15 0-.303-.034-.446-.105-.494-.247-.694-.848-.447-1.342l1-2c.248-.494.848-.692 1.342-.447.494.247.694.848.447 1.342l-1 2c-.176.35-.529.552-.896.552z"/><path d="m28.005 50c-.15 0-.303-.034-.446-.105-.494-.247-.694-.848-.447-1.342l1-2c.248-.494.848-.692 1.342-.447.494.247.694.848.447 1.342l-1 2c-.176.35-.529.552-.896.552z"/><path d="m32.005 50c-.15 0-.303-.034-.446-.105-.494-.247-.694-.848-.447-1.342l1-2c.248-.494.849-.692 1.342-.447.494.247.694.848.447 1.342l-1 2c-.176.35-.529.552-.896.552z"/><path d="m36.005 50c-.15 0-.303-.034-.446-.105-.494-.247-.694-.848-.447-1.342l1-2c.248-.494.848-.692 1.342-.447.494.247.694.848.447 1.342l-1 2c-.176.35-.529.552-.896.552z"/></g><path d="m50.499 36.996c0-.827-.673-1.5-1.5-1.5h-1.996c-.827 0-1.5.674-1.5 1.502l-.003 11.009c0 1.379 1.121 2.5 2.5 2.5s2.5-1.121 2.5-2.5z" fill="#5d9cec"/><path d="m6 40.501h35v2h-35z" fill="#545c66"/><path d="m6 26.491h35v2h-35z" fill="#545c66"/><path d="m60 17.92v3.57c0 .553-.447 1-1 1h-2c-.553 0-1-.447-1-1v-3.57c-1.76.771-3 2.53-3 4.58s1.24 3.811 3 4.58v.01c.61.26 1.29.41 2 .41s1.39-.15 2-.41v-.01c1.76-.77 3-2.53 3-4.58s-1.23-3.81-3-4.58z" fill="#e6e9ed"/></svg>