<svg id="icons" enable-background="new 0 0 64 64" height="512" viewBox="0 0 64 64" width="512" xmlns="http://www.w3.org/2000/svg"><path d="m40.506 13.5c1.1 0 2 .9 2 2 0 1.111-.9 2-2 2-1.111 0-2-.889-2-2 0-1.1.889-2 2-2z" fill="#a0d468"/><path d="m40.506 3.5c1.1 0 2 .9 2 2 0 1.111-.9 2-2 2-1.111 0-2-.889-2-2 0-1.1.889-2 2-2z" fill="#a0d468"/><path d="m40.506 23.5c1.1 0 2 .891 2 2 0 1.1-.9 2-2 2-1.111 0-2-.9-2-2 0-1.109.889-2 2-2z" fill="#a0d468"/><path d="m36.506 20.5h25.99c.549 0 1 .451 1 1v8c0 .551-.451 1-1 1h-12.99-13c-.551 0-1-.449-1-1v-8c0-.549.449-1 1-1zm4 3c-1.111 0-2 .891-2 2 0 1.1.889 2 2 2 1.1 0 2-.9 2-2 0-1.109-.901-2-2-2z" fill="#656d78"/><path d="m36.506.5h25.99c.549 0 1 .451 1 1v8c0 .551-.451 1-1 1h-25.99c-.551 0-1-.449-1-1v-8c0-.549.449-1 1-1zm4 3c-1.111 0-2 .9-2 2 0 1.111.889 2 2 2 1.1 0 2-.889 2-2 0-1.1-.901-2-2-2z" fill="#656d78"/><path d="m36.506 10.5h25.99c.549 0 1 .451 1 1v8c0 .551-.451 1-1 1h-25.99c-.551 0-1-.449-1-1v-2-6c0-.549.449-1 1-1zm4 7c1.1 0 2-.889 2-2 0-1.1-.9-2-2-2-1.111 0-2 .9-2 2 0 1.111.889 2 2 2z" fill="#545c66"/><path d="m21.506 57.5 1 5h-10l1-5z" fill="#ccd1d9"/><path d="m1.545 53.5h2.961 29v2c0 1.1-.9 2-2 2h-10-8-10c-1.1 0-2-.9-2-2v-2z" fill="#e6e9ed"/><path d="m1.506 34.5c0-1.1.9-2 2-2h1v21h-2.961-.039z" fill="#656d78"/><path d="m33.506 53.5h-29v-21h12 15c1.1 0 2 .9 2 2v11z" fill="#545c66"/><path d="m31.502 58.5h-27.998c-1.654 0-3-1.346-3-3v-21c0-1.654 1.346-3 3-3h27.998c1.654 0 3 1.346 3 3v21c0 1.654-1.346 3-3 3zm-27.998-25c-.551 0-1 .449-1 1v21c0 .551.449 1 1 1h27.998c.553 0 1-.449 1-1v-21c0-.551-.447-1-1-1z" fill="#e6e9ed"/><path d="m24.502 63.5h-14c-.553 0-1-.447-1-1s.447-1 1-1h14c.553 0 1 .447 1 1s-.447 1-1 1z" fill="#f5f7fa"/><path d="m50.496 7.5c-.15 0-.303-.033-.447-.105-.494-.246-.693-.848-.447-1.342l1-2c.248-.494.848-.691 1.342-.447.494.248.695.848.447 1.342l-1 2c-.176.351-.528.552-.895.552z" fill="#545c66"/><path d="m54.496 7.5c-.15 0-.303-.033-.447-.105-.494-.246-.693-.848-.447-1.342l1-2c.248-.494.848-.691 1.342-.447.494.248.695.848.447 1.342l-1 2c-.176.351-.528.552-.895.552z" fill="#545c66"/><path d="m58.496 7.5c-.15 0-.303-.033-.447-.105-.494-.246-.693-.848-.447-1.342l1-2c.248-.494.848-.691 1.342-.447.494.248.695.848.447 1.342l-1 2c-.176.351-.528.552-.895.552z" fill="#545c66"/><path d="m50.496 17.498c-.15 0-.303-.033-.447-.105-.494-.246-.693-.848-.447-1.342l1-2c.248-.494.848-.693 1.342-.447.494.248.695.848.447 1.342l-1 2c-.176.351-.528.552-.895.552z" fill="#434a54"/><path d="m54.496 17.498c-.15 0-.303-.033-.447-.105-.494-.246-.693-.848-.447-1.342l1-2c.248-.494.848-.693 1.342-.447.494.248.695.848.447 1.342l-1 2c-.176.351-.528.552-.895.552z" fill="#434a54"/><path d="m58.496 17.498c-.15 0-.303-.033-.447-.105-.494-.246-.693-.848-.447-1.342l1-2c.248-.494.848-.693 1.342-.447.494.248.695.848.447 1.342l-1 2c-.176.351-.528.552-.895.552z" fill="#434a54"/><path d="m50.496 27.496c-.15 0-.303-.033-.447-.105-.494-.246-.693-.848-.447-1.342l1-2c.248-.494.848-.691 1.342-.447.494.248.695.848.447 1.342l-1 2c-.176.351-.528.552-.895.552z" fill="#545c66"/><path d="m54.496 27.496c-.15 0-.303-.033-.447-.105-.494-.246-.693-.848-.447-1.342l1-2c.248-.494.848-.691 1.342-.447.494.248.695.848.447 1.342l-1 2c-.176.351-.528.552-.895.552z" fill="#545c66"/><path d="m58.496 27.496c-.15 0-.303-.033-.447-.105-.494-.246-.693-.848-.447-1.342l1-2c.248-.494.848-.691 1.342-.447.494.248.695.848.447 1.342l-1 2c-.176.351-.528.552-.895.552z" fill="#545c66"/><g fill="#e6e9ed"><path d="m49.502 46.502c-.553 0-1-.447-1-1v-12c0-.553.447-1 1-1s1 .447 1 1v12c0 .553-.447 1-1 1z"/><path d="m49.5 46.5h-12.998c-.553 0-1-.447-1-1s.447-1 1-1h12.998c.553 0 1 .447 1 1s-.447 1-1 1z"/><path d="m38.502 48.5c-.256 0-.512-.098-.707-.293l-2-2c-.391-.391-.391-1.023 0-1.414s1.023-.391 1.414 0l2 2c.391.391.391 1.023 0 1.414-.195.195-.451.293-.707.293z"/><path d="m36.502 46.5c-.256 0-.512-.098-.707-.293-.391-.391-.391-1.023 0-1.414l2-2c.391-.391 1.023-.391 1.414 0s.391 1.023 0 1.414l-2 2c-.195.195-.451.293-.707.293z"/><path d="m16.502 30.498c-.553 0-1-.447-1-1v-12c0-.553.447-1 1-1s1 .447 1 1v12c0 .553-.447 1-1 1z"/><path d="m32.506 18.5h-16.002c-.553 0-1-.447-1-1s.447-1 1-1h16.002c.553 0 1 .447 1 1s-.447 1-1 1z"/><path d="m32.506 18.5c-.256 0-.512-.098-.707-.293l-2-2c-.391-.391-.391-1.023 0-1.414s1.023-.391 1.414 0l2 2c.391.391.391 1.023 0 1.414-.195.195-.451.293-.707.293z"/><path d="m30.506 20.5c-.256 0-.512-.098-.707-.293-.391-.391-.391-1.023 0-1.414l2-2c.391-.391 1.023-.391 1.414 0s.391 1.023 0 1.414l-2 2c-.195.195-.451.293-.707.293z"/></g><path d="m10.496 36.498h-3c-.553 0-1-.447-1-1s.447-1 1-1h3c.553 0 1 .447 1 1s-.447 1-1 1z" fill="#a0d468"/><path d="m10.496 51.502h-3c-.553 0-1-.447-1-1s.447-1 1-1h3c.553 0 1 .447 1 1s-.447 1-1 1z" fill="#a0d468"/><path d="m15.5 48.502h-7.004c-.553 0-1-.447-1-1s.447-1 1-1h7.004c.553 0 1 .447 1 1s-.447 1-1 1z" fill="#5d9cec"/><path d="m23.508 42.5h-14.01c-.553 0-1-.447-1-1s.447-1 1-1h14.01c.553 0 1 .447 1 1s-.447 1-1 1z" fill="#ffce54"/><path d="m28.514 45.502h-19.016c-.553 0-1-.447-1-1s.447-1 1-1h19.016c.553 0 1 .447 1 1s-.448 1-1 1z" fill="#ed5565"/><path d="m19.504 39.5h-11.008c-.553 0-1-.447-1-1s.447-1 1-1h11.008c.553 0 1 .447 1 1s-.447 1-1 1z" fill="#5d9cec"/><path d="m17.533 57c-.553 0-1.006-.447-1.006-1s.443-1 .994-1h.012c.551 0 1 .447 1 1s-.449 1-1 1z" fill="#ccd1d9"/></svg>