<svg id="icons" enable-background="new 0 0 64 64" height="512" viewBox="0 0 64 64" width="512" xmlns="http://www.w3.org/2000/svg"><g fill="#545c66"><path d="m14.998 29c-.553 0-1-.447-1-1v-4.008c0-.553.447-1 1-1s1 .447 1 1v4.008c0 .553-.447 1-1 1z"/><path d="m48.996 29h-33.998c-.553 0-1-.447-1-1s.447-1 1-1h33.998c.553 0 1 .447 1 1s-.447 1-1 1z"/><path d="m48.996 29c-.553 0-1-.447-1-1v-4.008c0-.553.447-1 1-1s1 .447 1 1v4.008c0 .553-.447 1-1 1z"/><path d="m31.998 34.006c-.553 0-1-.447-1-1v-5.006c0-.553.447-1 1-1s1 .447 1 1v5.006c0 .553-.447 1-1 1z"/></g><path d="m21.005 56c1.1 0 2 .9 1.99 2 0 1.11-.9 2-2 2-1.11-.01-2-.91-2-2.01.01-1.1.9-2 2.01-1.99z" fill="#a0d468"/><path d="m21.005 46c1.1 0 2 .9 1.99 2.01 0 1.101-.9 1.99-2 1.99-1.11 0-2-.9-2-2.01.01-1.1.9-1.99 2.01-1.99z" fill="#a0d468"/><path d="m21.005 36c1.1 0 2 .9 1.99 2.01 0 1.101-.9 1.99-2 1.99-1.11 0-2-.9-2-2.01.01-1.1.9-1.99 2.01-1.99z" fill="#a0d468"/><path d="m20.995 60c1.1 0 2-.89 2-2 .01-1.1-.891-2-1.99-2-1.11-.01-2 .89-2.01 1.99 0 1.1.89 2 2 2.01zm-4-7h30c1.1 0 2 .9 2 2v6c0 1.1-.9 2-2 2h-30c-1.101 0-2-.9-2-2v-6c0-1.1.9-2 2-2z" fill="#656d78"/><path d="m16.995 33h15 15c1.1 0 2 .9 2 2v6c0 1.1-.9 2-2 2h-30c-1.101 0-2-.9-2-2v-6c0-1.1.9-2 2-2zm4 7c1.1 0 2-.89 2-1.99.01-1.109-.891-2.01-1.99-2.01-1.11 0-2 .89-2.01 1.99 0 1.11.89 2.01 2 2.01z" fill="#656d78"/><path d="m20.995 50c1.1 0 2-.89 2-1.99.01-1.109-.891-2.01-1.99-2.01-1.11 0-2 .89-2.01 1.99 0 1.11.89 2.01 2 2.01zm-4-7h30c1.1 0 2 .9 2 2v6c0 1.1-.9 2-2 2h-30c-1.101 0-2-.9-2-2v-6c0-1.1.9-2 2-2z" fill="#545c66"/><path d="m61.995 3v1h-25.99v-1c0-1.11.89-2 2-2h21.99c1.109 0 2 .89 2 2z" fill="#aab2bd"/><path d="m61.995 4v18.992l-1 .998h-12-11.99l-1-.998v-18.992z" fill="#656d78"/><path d="m4.005 1h21.99c1.1 0 2 .89 2 2v1h-25.99v-1c0-1.11.89-2 2-2z" fill="#aab2bd"/><path d="m27.995 4v18.992l-1 .998h-12-11.99l-1-.998v-18.992z" fill="#656d78"/><path d="m35.997 39.989c-.151 0-.305-.034-.449-.107-.493-.249-.691-.85-.442-1.343l1.008-1.997c.249-.493.85-.691 1.343-.442s.691.85.442 1.343l-1.008 1.997c-.176.348-.529.549-.894.549z" fill="#545c66"/><path d="m39.997 40.003c-.151 0-.306-.034-.45-.107-.492-.249-.69-.851-.441-1.344l1.008-1.996c.249-.491.852-.69 1.344-.441s.69.851.441 1.344l-1.008 1.996c-.176.347-.529.548-.894.548z" fill="#545c66"/><path d="m43.997 40.018c-.151 0-.305-.034-.449-.107-.493-.249-.691-.85-.442-1.343l1.008-1.997c.249-.493.851-.691 1.343-.442.493.249.691.85.442 1.343l-1.008 1.997c-.176.347-.529.549-.894.549z" fill="#545c66"/><path d="m35.997 49.987c-.151 0-.305-.034-.449-.107-.493-.249-.691-.85-.442-1.343l1.008-1.997c.249-.493.85-.69 1.343-.442.493.249.691.85.442 1.343l-1.008 1.997c-.176.348-.529.549-.894.549z" fill="#434a54"/><path d="m39.997 50.001c-.151 0-.306-.034-.45-.107-.492-.249-.69-.851-.441-1.344l1.008-1.996c.249-.491.852-.691 1.344-.441.492.249.69.851.441 1.344l-1.008 1.996c-.176.347-.529.548-.894.548z" fill="#434a54"/><path d="m43.997 50.016c-.151 0-.305-.034-.449-.107-.493-.249-.691-.85-.442-1.343l1.008-1.997c.249-.492.851-.69 1.343-.442.493.249.691.85.442 1.343l-1.008 1.997c-.176.347-.529.549-.894.549z" fill="#434a54"/><path d="m35.997 59.985c-.151 0-.305-.034-.449-.107-.493-.249-.691-.85-.442-1.343l1.008-1.997c.249-.492.85-.691 1.343-.442s.691.85.442 1.343l-1.008 1.997c-.176.348-.529.549-.894.549z" fill="#545c66"/><path d="m39.997 59.999c-.151 0-.306-.034-.45-.107-.492-.249-.69-.851-.441-1.344l1.008-1.996c.249-.492.852-.69 1.344-.441s.69.851.441 1.344l-1.008 1.996c-.176.347-.529.548-.894.548z" fill="#545c66"/><path d="m43.997 60.014c-.151 0-.305-.034-.449-.107-.493-.249-.691-.85-.442-1.343l1.008-1.997c.249-.492.851-.691 1.343-.442.493.249.691.85.442 1.343l-1.008 1.997c-.176.348-.529.549-.894.549z" fill="#545c66"/><path d="m15.996 9.004h-9.994c-.553 0-1-.447-1-1s.447-1 1-1h9.994c.553 0 1 .447 1 1s-.447 1-1 1z" fill="#5d9cec"/><path d="m17.996 13.004h-9.994c-.553 0-1-.447-1-1s.447-1 1-1h9.994c.553 0 1 .447 1 1s-.447 1-1 1z" fill="#a0d468"/><path d="m22.994 13.004h-.998c-.553 0-1-.447-1-1s.447-1 1-1h.998c.553 0 1 .447 1 1s-.447 1-1 1z" fill="#a0d468"/><path d="m11.002 20.988h-5c-.553 0-1-.447-1-1s.447-1 1-1h5c.553 0 1 .447 1 1s-.447 1-1 1z" fill="#5d9cec"/><path d="m19.992 17h-11.992c-.553 0-1-.447-1-1s.447-1 1-1h11.992c.553 0 1 .447 1 1s-.447 1-1 1z" fill="#ed5565"/><path d="m50 9.004h-9.994c-.553 0-1-.447-1-1s.447-1 1-1h9.994c.553 0 1 .447 1 1s-.447 1-1 1z" fill="#a0d468"/><path d="m51.998 13.004h-9.992c-.553 0-1-.447-1-1s.447-1 1-1h9.992c.553 0 1 .447 1 1s-.447 1-1 1z" fill="#ed5565"/><path d="m56.998 13.004h-1c-.553 0-1-.447-1-1s.447-1 1-1h1c.553 0 1 .447 1 1s-.447 1-1 1z" fill="#ed5565"/><path d="m45.006 20.988h-5c-.553 0-1-.447-1-1s.447-1 1-1h5c.553 0 1 .447 1 1s-.447 1-1 1z" fill="#a0d468"/><path d="m53.996 17h-11.992c-.553 0-1-.447-1-1s.447-1 1-1h11.992c.553 0 1 .447 1 1s-.447 1-1 1z" fill="#5d9cec"/><circle cx="3.005" cy="22.992" fill="#656d78" r="1"/><circle cx="26.995" cy="22.992" fill="#656d78" r="1"/><circle cx="37.005" cy="22.992" fill="#656d78" r="1"/><circle cx="60.995" cy="22.992" fill="#656d78" r="1"/></svg>