<svg id="icons" enable-background="new 0 0 64 64" height="512" viewBox="0 0 64 64" width="512" xmlns="http://www.w3.org/2000/svg"><path d="m50.969 20.011h-46.961v39.99h40.961 5.019.001c.553 0 1-.447 1-1v-38.99z" fill="#656d78"/><path d="m1.019 20.011v2 4 32.99c0 .553.446.999.999 1h1.99v-39.99z" fill="#545c66"/><path d="m56.975 14.005h-46.961v39.99h40.961 5.019.001c.553 0 1-.447 1-1v-38.99z" fill="#434a54"/><path d="m7.024 14.005v2 4 32.99c0 .553.446.999.999 1h1.99v-39.99z" fill="#353b44"/><path d="m62.98 7.999h-46.96v39.99h40.96 5.019.001c.553 0 1-.447 1-1v-38.99z" fill="#656d78"/><path d="m1 17.999c0-1.11.89-2 2-2h4.01v4h-.01-3-2.99-.01z" fill="#aab2bd"/><path d="m6.99 11.999c0-1.1.899-2 2-2h4.04v4h-.04-2.99-2.99-.02z" fill="#aab2bd"/><path d="m62.98 5.999v2h-46.96-2.99-.02v-2c0-1.11.9-2 2-2h45.97c1.11 0 2 .89 2 2z" fill="#aab2bd"/><g fill="#ccd1d9"><path d="m10.023 13.003c-.553 0-1.005-.447-1.005-1s.442-1 .994-1h.011c.552 0 1 .447 1 1s-.448 1-1 1z"/><path d="m4.029 18.997c-.553 0-1.005-.447-1.005-1s.442-1 .994-1h.011c.552 0 1 .447 1 1s-.448 1-1 1z"/><path d="m16.046 6.997c-.553 0-1.005-.447-1.005-1s.442-1 .994-1h.011c.552 0 1 .447 1 1s-.448 1-1 1z"/><path d="m19.046 6.997c-.553 0-1.005-.447-1.005-1s.442-1 .994-1h.011c.552 0 1 .447 1 1s-.448 1-1 1z"/><path d="m22.046 6.997c-.553 0-1.005-.447-1.005-1s.442-1 .994-1h.011c.552 0 1 .447 1 1s-.448 1-1 1z"/></g><path d="m39.021 12.993h-19.001c-.553 0-1-.447-1-1s.447-1 1-1h19.002c.553 0 1 .447 1 1s-.448 1-1.001 1z" fill="#5d9cec"/><path d="m42.021 16.993h-20.001c-.553 0-1-.447-1-1s.447-1 1-1h20.002c.553 0 1 .447 1 1s-.448 1-1.001 1z" fill="#a0d468"/><path d="m36.023 41.009h-14.003c-.553 0-1-.447-1-1s.447-1 1-1h14.004c.553 0 1 .447 1 1s-.448 1-1.001 1z" fill="#a0d468"/><path d="m48.021 16.993h-2c-.553 0-1-.447-1-1s.447-1 1-1h2c.553 0 1 .447 1 1s-.447 1-1 1z" fill="#a0d468"/><path d="m26.02 44.997h-6c-.553 0-1-.447-1-1s.447-1 1-1h6c.553 0 1 .447 1 1s-.448 1-1 1z" fill="#5d9cec"/><path d="m28.02 20.993h-4c-.553 0-1-.447-1-1s.447-1 1-1h4c.553 0 1 .447 1 1s-.448 1-1 1z" fill="#ed5565"/><path d="m53.021 20.993h-21.001c-.553 0-1-.447-1-1s.447-1 1-1h21.002c.553 0 1 .447 1 1s-.448 1-1.001 1z" fill="#ed5565"/><path d="m47.523 24.993h-23.002c-.553 0-1-.447-1-1s.447-1 1-1h23.002c.553 0 1 .447 1 1s-.447 1-1 1z" fill="#ffce54"/><path d="m37.021 28.993h-13.001c-.553 0-1-.447-1-1s.447-1 1-1h13.002c.553 0 1 .447 1 1s-.448 1-1.001 1z" fill="#e6e9ed"/><path d="m46.03 37.001h-22.01c-.553 0-1-.447-1-1s.447-1 1-1h22.01c.553 0 1 .447 1 1s-.447 1-1 1z" fill="#ed5565"/><path d="m49.525 32.993h-18.003c-.553 0-1-.447-1-1s.447-1 1-1h18.003c.553 0 1 .447 1 1s-.447 1-1 1z" fill="#ffce54"/><path d="m27.522 32.993h-3.001c-.553 0-1-.447-1-1s.447-1 1-1h3.001c.553 0 1 .447 1 1s-.447 1-1 1z" fill="#ffce54"/><path d="m55.021 24.993h-4c-.553 0-1-.447-1-1s.447-1 1-1h4c.553 0 1 .447 1 1s-.447 1-1 1z" fill="#ffce54"/><path d="m13.03 7.999v2 4 32.99c0 .553.446.999.999 1h1.99v-39.99z" fill="#545c66"/></svg>