<svg id="icons" enable-background="new 0 0 64 64" height="512" viewBox="0 0 64 64" width="512" xmlns="http://www.w3.org/2000/svg"><path d="m50.994 57v3h3v-3zm3-3v-9h-3v9zm-30 0v-3h-3v3zm0-6v-3h-3v3zm3 6h3v-3h-3zm3-6v-3h-3v3zm3 6h3v-3h-3zm3-6v-3h-3v3zm6 9h-21v3h21zm0-3v-3h-3v3zm0-6v-3h-3v3zm3 9v3h3v-3zm3-9v-3h-3v3zm0 6v-3h-3v3zm-39 3v3h3v-3zm3-9v-3h-3v3zm6 3h-9v3h9zm-3-3h3v-3h-3zm0 9v3h3v-3zm43-13.99v18.99c0 1.1-.9 2-2 2h-48.99c-1.1 0-2-.9-2-2v-18.99c0-1.1.9-2 2-2h48.99c1.1 0 2 .9 2 2z" fill="#ccd1d9"/><path d="m55.994 14.993h-4.994c-.553 0-1 .447-1 1s.447 1 1 1h4.994c.553 0 1.002.449 1.002 1.002v15.985c0 .553-.449 1.002-1.002 1.002h-21.494c-2.207 0-4 1.794-4 4 0 .553.447 1 1 1s1-.447 1-1c0-1.103.896-2 2-2h21.494c1.654 0 3.002-1.347 3.002-3.002v-15.985c0-1.655-1.348-3.002-3.002-3.002z" fill="#ccd1d9"/><path d="m50.994 54.98v3h3v-3zm3-3v-9h-3v9zm-30 0v-3h-3v3zm0-6v-3h-3v3zm3 6h3v-3h-3zm3-6v-3h-3v3zm3 6h3v-3h-3zm3-6v-3h-3v3zm6 9h-21v3h21zm0-3v-3h-3v3zm0-6v-3h-3v3zm3 9v3h3v-3zm3-9v-3h-3v3zm0 6v-3h-3v3zm-39 3v3h3v-3zm3-9v-3h-3v3zm6 3h-9v3h9zm-3-3h3v-3h-3zm0 9v3h3v-3zm43-13.99v18.99c0 1.1-.9 2-2 2h-48.99c-1.1 0-2-.9-2-2v-18.99c0-1.1.9-2 2-2h48.99c1.1 0 2 .901 2 2z" fill="#e6e9ed"/><path d="m15.994 4v27.98h-1.992l-1.008-.99v-26.99z" fill="#545c66"/><path d="m50.984 4h-34.99-3v-2c0-1.109.891-2 2-2h33.99c1.109 0 2 .891 2 2z" fill="#aab2bd"/><path d="m50.984 4v26.99l-.988.99h-34.002v-27.98z" fill="#656d78"/><g fill="#ccd1d9"><path d="m9.002 47.985h3c.553 0 1-.447 1-1v-3c0-.553-.447-1-1-1h-3c-.553 0-1 .447-1 1v3c0 .553.447 1 1 1z"/><path d="m18.002 42.985h-3c-.553 0-1 .447-1 1v3c0 .553.447 1 1 1h3c.553 0 1-.447 1-1v-3c0-.552-.447-1-1-1z"/><path d="m21 47.985h3c.553 0 1-.447 1-1v-3c0-.553-.447-1-1-1h-3c-.553 0-1 .447-1 1v3c0 .553.447 1 1 1z"/><path d="m27 47.985h3c.553 0 1-.447 1-1v-3c0-.553-.447-1-1-1h-3c-.553 0-1 .447-1 1v3c0 .553.447 1 1 1z"/><path d="m32.998 47.985h3c.553 0 1-.447 1-1v-3c0-.553-.447-1-1-1h-3c-.553 0-1 .447-1 1v3c0 .553.447 1 1 1z"/><path d="m41.998 42.985h-3c-.553 0-1 .447-1 1v3c0 .553.447 1 1 1h3c.553 0 1-.447 1-1v-3c0-.552-.447-1-1-1z"/><path d="m47.996 42.985h-3c-.553 0-1 .447-1 1v3c0 .553.447 1 1 1h3c.553 0 1-.447 1-1v-3c0-.552-.447-1-1-1z"/><path d="m18.002 48.984h-9c-.553 0-1 .447-1 1v3c0 .553.447 1 1 1h9c.553 0 1-.447 1-1v-3c0-.552-.447-1-1-1z"/><path d="m21 53.984h3c.553 0 1-.447 1-1v-3c0-.553-.447-1-1-1h-3c-.553 0-1 .447-1 1v3c0 .553.447 1 1 1z"/><path d="m27 53.984h3c.553 0 1-.447 1-1v-3c0-.553-.447-1-1-1h-3c-.553 0-1 .447-1 1v3c0 .553.447 1 1 1z"/><path d="m32.998 53.984h3c.553 0 1-.447 1-1v-3c0-.553-.447-1-1-1h-3c-.553 0-1 .447-1 1v3c0 .553.447 1 1 1z"/><path d="m41.998 48.984h-3c-.553 0-1 .447-1 1v3c0 .553.447 1 1 1h3c.553 0 1-.447 1-1v-3c0-.552-.447-1-1-1z"/><path d="m47.996 48.984h-3c-.553 0-1 .447-1 1v3c0 .553.447 1 1 1h3c.553 0 1-.447 1-1v-3c0-.552-.447-1-1-1z"/><path d="m53.996 42.985h-3c-.553 0-1 .447-1 1v8.999c0 .553.447 1 1 1h3c.553 0 1-.447 1-1v-8.999c0-.552-.447-1-1-1z"/><path d="m12.002 54.983h-3c-.553 0-1 .447-1 1v3c0 .553.447 1 1 1h3c.553 0 1-.447 1-1v-3c0-.552-.447-1-1-1z"/><path d="m18.002 54.983h-3c-.553 0-1 .447-1 1v3c0 .553.447 1 1 1h3c.553 0 1-.447 1-1v-3c0-.552-.447-1-1-1z"/><path d="m41.998 54.983h-20.998c-.553 0-1 .447-1 1v3c0 .553.447 1 1 1h20.998c.553 0 1-.447 1-1v-3c0-.552-.447-1-1-1z"/><path d="m47.996 54.983h-3c-.553 0-1 .447-1 1v3c0 .553.447 1 1 1h3c.553 0 1-.447 1-1v-3c0-.552-.447-1-1-1z"/><path d="m53.996 54.983h-3c-.553 0-1 .447-1 1v3c0 .553.447 1 1 1h3c.553 0 1-.447 1-1v-3c0-.552-.447-1-1-1z"/></g><path d="m9.002 46.984h3c.553 0 1-.447 1-1v-3c0-.553-.447-1-1-1h-3c-.553 0-1 .447-1 1v3c0 .553.447 1 1 1z" fill="#fff"/><path d="m18.002 41.984h-3c-.553 0-1 .447-1 1v3c0 .553.447 1 1 1h3c.553 0 1-.447 1-1v-3c0-.552-.447-1-1-1z" fill="#fff"/><path d="m21 46.984h3c.553 0 1-.447 1-1v-3c0-.553-.447-1-1-1h-3c-.553 0-1 .447-1 1v3c0 .553.447 1 1 1z" fill="#fff"/><path d="m27 46.984h3c.553 0 1-.447 1-1v-3c0-.553-.447-1-1-1h-3c-.553 0-1 .447-1 1v3c0 .553.447 1 1 1z" fill="#fff"/><path d="m32.998 46.984h3c.553 0 1-.447 1-1v-3c0-.553-.447-1-1-1h-3c-.553 0-1 .447-1 1v3c0 .553.447 1 1 1z" fill="#fff"/><path d="m41.998 41.984h-3c-.553 0-1 .447-1 1v3c0 .553.447 1 1 1h3c.553 0 1-.447 1-1v-3c0-.552-.447-1-1-1z" fill="#fff"/><path d="m47.996 41.984h-3c-.553 0-1 .447-1 1v3c0 .553.447 1 1 1h3c.553 0 1-.447 1-1v-3c0-.552-.447-1-1-1z" fill="#fff"/><path d="m18.002 47.983h-9c-.553 0-1 .447-1 1v3c0 .553.447 1 1 1h9c.553 0 1-.447 1-1v-3c0-.552-.447-1-1-1z" fill="#fff"/><path d="m21 52.983h3c.553 0 1-.447 1-1v-3c0-.553-.447-1-1-1h-3c-.553 0-1 .447-1 1v3c0 .553.447 1 1 1z" fill="#fff"/><path d="m27 52.983h3c.553 0 1-.447 1-1v-3c0-.553-.447-1-1-1h-3c-.553 0-1 .447-1 1v3c0 .553.447 1 1 1z" fill="#fff"/><path d="m32.998 52.983h3c.553 0 1-.447 1-1v-3c0-.553-.447-1-1-1h-3c-.553 0-1 .447-1 1v3c0 .553.447 1 1 1z" fill="#fff"/><path d="m41.998 47.983h-3c-.553 0-1 .447-1 1v3c0 .553.447 1 1 1h3c.553 0 1-.447 1-1v-3c0-.552-.447-1-1-1z" fill="#fff"/><path d="m47.996 47.983h-3c-.553 0-1 .447-1 1v3c0 .553.447 1 1 1h3c.553 0 1-.447 1-1v-3c0-.552-.447-1-1-1z" fill="#fff"/><path d="m53.996 41.984h-3c-.553 0-1 .447-1 1v8.999c0 .553.447 1 1 1h3c.553 0 1-.447 1-1v-8.999c0-.552-.447-1-1-1z" fill="#fff"/><path d="m12.002 53.982h-3c-.553 0-1 .447-1 1v3c0 .553.447 1 1 1h3c.553 0 1-.447 1-1v-3c0-.552-.447-1-1-1z" fill="#fff"/><path d="m18.002 53.982h-3c-.553 0-1 .447-1 1v3c0 .553.447 1 1 1h3c.553 0 1-.447 1-1v-3c0-.552-.447-1-1-1z" fill="#fff"/><path d="m41.998 53.982h-20.998c-.553 0-1 .447-1 1v3c0 .553.447 1 1 1h20.998c.553 0 1-.447 1-1v-3c0-.552-.447-1-1-1z" fill="#fff"/><path d="m47.996 53.982h-3c-.553 0-1 .447-1 1v3c0 .553.447 1 1 1h3c.553 0 1-.447 1-1v-3c0-.552-.447-1-1-1z" fill="#fff"/><path d="m53.996 53.982h-3c-.553 0-1 .447-1 1v3c0 .553.447 1 1 1h3c.553 0 1-.447 1-1v-3c0-.552-.447-1-1-1z" fill="#fff"/><path d="m16.025 2.999c-.553 0-1.004-.447-1.004-1s.441-1 .994-1h.01c.553 0 1 .447 1 1s-.447 1-1 1z" fill="#ccd1d9"/><path d="m19.025 2.999c-.553 0-1.004-.447-1.004-1s.441-1 .994-1h.01c.553 0 1 .447 1 1s-.447 1-1 1z" fill="#ccd1d9"/><path d="m22.025 2.999c-.553 0-1.004-.447-1.004-1s.441-1 .994-1h.01c.553 0 1 .447 1 1s-.447 1-1 1z" fill="#ccd1d9"/><path d="m40 8.999h-20.004c-.553 0-1-.447-1-1s.447-1 1-1h20.004c.553 0 1 .447 1 1s-.447 1-1 1z" fill="#5d9cec"/><path d="m36 12.999h-14.004c-.553 0-1-.447-1-1s.447-1 1-1h14.004c.553 0 1 .447 1 1s-.447 1-1 1z" fill="#a0d468"/><path d="m35 24.996h-13.004c-.553 0-1-.447-1-1s.447-1 1-1h13.004c.553 0 1 .447 1 1s-.447 1-1 1z" fill="#a0d468"/><path d="m42 12.999h-2c-.553 0-1-.447-1-1s.447-1 1-1h2c.553 0 1 .447 1 1s-.447 1-1 1z" fill="#a0d468"/><path d="m25.996 28.982h-6c-.553 0-1-.447-1-1s.447-1 1-1h6c.553 0 1 .447 1 1s-.447 1-1 1z" fill="#5d9cec"/><path d="m44 20.995h-20.004c-.553 0-1-.447-1-1s.447-1 1-1h20.004c.553 0 1 .447 1 1s-.447 1-1 1z" fill="#ed5565"/><path d="m29.986 16.993h-5.99c-.553 0-1-.447-1-1s.447-1 1-1h5.99c.553 0 1 .447 1 1s-.447 1-1 1z" fill="#ed5565"/><circle cx="14.002" cy="30.99" fill="#545c66" r="1"/><circle cx="49.996" cy="30.99" fill="#656d78" r="1"/></svg>